<svg width="128" height="40" viewBox="0 0 128 40" fill="none" xmlns="http://www.w3.org/2000/svg">
<rect x="0.5" y="0.5" width="127" height="39" rx="3.5" fill="#1E1F22"/>
<path d="M33.2631 20.1591C33.2392 17.5081 35.4343 16.2184 35.5346 16.1584C34.2915 14.3464 32.3646 14.0988 31.6875 14.0791C30.0692 13.9088 28.4994 15.0472 27.675 15.0472C26.8342 15.0472 25.5647 14.0955 24.1965 14.1235C22.4358 14.1506 20.7887 15.1697 19.8853 16.7522C18.021 19.979 19.4114 24.7208 21.1976 27.329C22.0911 28.6072 23.1352 30.0327 24.5017 29.9825C25.8387 29.9282 26.3381 29.1312 27.9515 29.1312C29.55 29.1312 30.019 29.9825 31.4127 29.9504C32.8476 29.9282 33.7509 28.6673 34.6132 27.3784C35.6457 25.9151 36.0604 24.4724 36.0768 24.3984C36.0439 24.3869 33.291 23.3357 33.2631 20.1591ZM30.6303 12.3633C31.3494 11.4643 31.8414 10.2412 31.7048 9C30.664 9.04606 29.3625 9.71971 28.6129 10.599C27.9498 11.3738 27.3574 12.6438 27.5105 13.8381C28.6796 13.9252 29.88 13.2483 30.6303 12.3633Z" fill="white"/>
<path d="M52.6277 29.7995H50.7593L49.7358 26.5842H46.1783L45.2034 29.7995H43.3843L46.9097 18.8534H49.0867L52.6277 29.7995ZM49.4273 25.2353L48.5017 22.3771C48.4038 22.0851 48.2195 21.3974 47.9497 20.315H47.9167C47.8081 20.7805 47.6345 21.4682 47.3968 22.3771L46.4868 25.2353H49.4273ZM61.6762 25.756C61.6762 27.0983 61.3117 28.1594 60.582 28.9383C59.9287 29.6317 59.1167 29.978 58.1483 29.978C57.1026 29.978 56.3506 29.6054 55.894 28.8585V32.9999H54.1399V24.5008C54.1399 23.6577 54.1177 22.7933 54.0749 21.9066H55.6176L55.7155 23.1576H55.7484C56.3334 22.215 57.2211 21.7437 58.4124 21.7437C59.3438 21.7437 60.1212 22.1114 60.7432 22.8475C61.3644 23.5853 61.6762 24.5543 61.6762 25.756ZM59.8892 25.8201C59.8892 25.0519 59.7165 24.4186 59.3693 23.9193C58.99 23.4003 58.4807 23.1404 57.8423 23.1404C57.4095 23.1404 57.0162 23.2851 56.6649 23.5705C56.3128 23.8584 56.0824 24.2343 55.9746 24.6999C55.9265 24.874 55.8992 25.0531 55.8932 25.2337V26.5505C55.8932 27.1238 56.0693 27.6083 56.4214 28.0047C56.7735 28.3996 57.231 28.5978 57.7937 28.5978C58.4544 28.5978 58.9686 28.342 59.3364 27.8345C59.7049 27.3253 59.8892 26.6542 59.8892 25.8201ZM70.7568 25.756C70.7568 27.0983 70.3923 28.1594 69.6625 28.9383C69.0085 29.6317 68.1972 29.978 67.2281 29.978C66.1824 29.978 65.4304 29.6054 64.9738 28.8585V32.9999H63.2197V24.5008C63.2197 23.6577 63.1975 22.7933 63.1547 21.9066H64.6973L64.7952 23.1576H64.8281C65.4123 22.215 66.3 21.7437 67.4922 21.7437C68.4227 21.7437 69.2002 22.1114 69.8238 22.8475C70.4441 23.5853 70.7568 24.5543 70.7568 25.756ZM68.969 25.8201C68.969 25.0519 68.7954 24.4186 68.4482 23.9193C68.0689 23.4003 67.5613 23.1404 66.9228 23.1404C66.4901 23.1404 66.0968 23.2851 65.7438 23.5705C65.3917 23.8584 65.1622 24.2343 65.0544 24.6999C65.0009 24.917 64.9721 25.0938 64.9721 25.2337V26.5505C64.9721 27.1238 65.149 27.6083 65.4995 28.0047C65.8516 28.3987 66.3091 28.5978 66.8735 28.5978C67.5349 28.5978 68.0492 28.342 68.4161 27.8345C68.7847 27.3253 68.969 26.6542 68.969 25.8201ZM80.9094 26.729C80.9094 27.6609 80.5836 28.4185 79.9361 29.0033C79.2236 29.6416 78.2289 29.9615 76.9537 29.9615C75.7755 29.9615 74.831 29.7345 74.1185 29.2796L74.5241 27.818C75.2934 28.2737 76.1383 28.5007 77.0581 28.5007C77.7196 28.5007 78.2338 28.351 78.6008 28.0541C78.9685 27.7563 79.1545 27.3582 79.1545 26.8614C79.1545 26.4165 79.0006 26.0439 78.6987 25.7403C78.3951 25.4377 77.8932 25.1555 77.1881 24.8964C75.2711 24.1817 74.3118 23.1362 74.3118 21.761C74.3118 20.8628 74.6508 20.1275 75.3271 19.5525C76.0034 18.9784 76.9002 18.6914 78.0158 18.6914C79.0121 18.6914 79.8423 18.8649 80.5013 19.2112L80.0611 20.6407C79.4408 20.3051 78.7406 20.1373 77.9574 20.1373C77.3387 20.1373 76.8533 20.2895 76.5061 20.5922C76.214 20.8628 76.0659 21.1926 76.0659 21.5842C76.0659 22.016 76.2346 22.3746 76.5703 22.6559C76.8615 22.915 77.393 23.1971 78.1614 23.4998C79.1043 23.8798 79.797 24.3223 80.2405 24.8306C80.6872 25.339 80.9094 25.9731 80.9094 26.729ZM86.7237 23.2226H84.7902V27.0547C84.7902 28.0294 85.1308 28.5155 85.8137 28.5155C86.1272 28.5155 86.3872 28.4892 86.5929 28.4341L86.6414 29.7658C86.2958 29.8949 85.8409 29.9599 85.2773 29.9599C84.5845 29.9599 84.0432 29.7485 83.6524 29.3257C83.2632 28.9029 83.0674 28.1947 83.0674 27.1978V23.2193H81.9156V21.9033H83.0674V20.4581L84.7902 19.9383V21.9033H86.7237V23.2226ZM95.4299 25.7881C95.4299 27.0013 95.0827 27.9973 94.3899 28.7763C93.6651 29.5782 92.7009 29.978 91.4988 29.978C90.3388 29.978 89.4165 29.5938 88.7287 28.8264C88.0409 28.0574 87.697 27.0885 87.697 25.9197C87.697 24.6966 88.0524 23.6947 88.7608 22.9158C89.4708 22.1361 90.4268 21.7462 91.6288 21.7462C92.7873 21.7462 93.7178 22.1311 94.422 22.8994C95.095 23.6446 95.4299 24.6069 95.4299 25.7881ZM93.6116 25.8284C93.6116 25.1054 93.4553 24.4852 93.1418 23.9662C92.7741 23.3394 92.2475 23.026 91.5655 23.026C90.8629 23.026 90.324 23.3394 89.957 23.9662C89.6427 24.4852 89.4864 25.1161 89.4864 25.8613C89.4864 26.5851 89.6427 27.2069 89.957 27.7243C90.3363 28.351 90.8653 28.6644 91.5507 28.6644C92.2212 28.6644 92.7469 28.3444 93.127 27.7086C93.4496 27.1773 93.6116 26.553 93.6116 25.8284ZM101.134 23.4488C100.951 23.4159 100.766 23.3996 100.581 23.4003C99.964 23.4003 99.4868 23.6322 99.1511 24.0994C98.8599 24.5107 98.7134 25.0305 98.7134 25.6581V29.7995H96.9594V24.3922C96.9609 23.5637 96.9439 22.7352 96.9083 21.9074H98.4362L98.5003 23.4175H98.5489C98.7348 22.8985 99.0261 22.4799 99.4259 22.1665C99.7919 21.8927 100.237 21.7444 100.694 21.7437C100.856 21.7437 101.002 21.7552 101.132 21.7758L101.134 23.4488ZM108.979 25.4796C108.983 25.7462 108.962 26.0126 108.915 26.275H103.652C103.672 27.0547 103.927 27.6519 104.416 28.0631C104.859 28.43 105.433 28.6142 106.137 28.6142C106.916 28.6142 107.627 28.4909 108.266 28.2416L108.541 29.4581C107.794 29.7839 106.912 29.9459 105.894 29.9459C104.67 29.9459 103.709 29.5856 103.01 28.8667C102.312 28.147 101.962 27.1798 101.962 25.9682C101.962 24.7788 102.287 23.7877 102.938 22.9972C103.619 22.1533 104.54 21.7314 105.698 21.7314C106.836 21.7314 107.698 22.1533 108.283 22.9972C108.746 23.6659 108.979 24.4951 108.979 25.4796ZM107.306 25.0248C107.318 24.5041 107.203 24.0558 106.966 23.6766C106.662 23.1881 106.195 22.9446 105.568 22.9446C104.995 22.9446 104.528 23.1823 104.172 23.6594C103.88 24.0386 103.707 24.4942 103.653 25.0231L107.306 25.0248Z" fill="white"/>
<path d="M45.6724 14.983C45.1845 14.983 44.7624 14.9592 44.4111 14.9189V9.62676C44.9025 9.55088 45.399 9.51348 45.8962 9.5149C47.9078 9.5149 48.8342 10.5044 48.8342 12.1174C48.8342 13.9779 47.7399 14.983 45.6724 14.983ZM45.9669 10.1935C45.6954 10.1935 45.4642 10.2099 45.2725 10.2494V14.2724C45.3762 14.2888 45.5753 14.2962 45.855 14.2962C47.1731 14.2962 47.9234 13.5461 47.9234 12.1412C47.9234 10.8885 47.2446 10.1935 45.9669 10.1935ZM51.7212 15.0233C50.5874 15.0233 49.8527 14.1769 49.8527 13.0279C49.8527 11.8303 50.6031 10.9765 51.7853 10.9765C52.9026 10.9765 53.6538 11.7826 53.6538 12.9645C53.6538 14.1769 52.8796 15.0233 51.7212 15.0233ZM51.7541 11.6066C51.1312 11.6066 50.7322 12.1889 50.7322 13.0032C50.7322 13.8019 51.1395 14.3842 51.7458 14.3842C52.3522 14.3842 52.7594 13.7616 52.7594 12.9868C52.7594 12.1971 52.3604 11.6066 51.7541 11.6066ZM60.1188 11.0563L58.9053 14.9353H58.1146L57.6119 13.2508C57.487 12.8387 57.3829 12.4206 57.3001 11.9981H57.2837C57.2203 12.4209 57.1002 12.8445 56.9727 13.2508L56.4379 14.9353H55.639L54.4971 11.0563H55.3832L55.8225 12.9004C55.9262 13.3396 56.0134 13.7542 56.0858 14.1457H56.1022C56.1656 13.8191 56.2692 13.4112 56.4214 12.9086L56.9727 11.0571H57.6753L58.2027 12.8691C58.3302 13.3084 58.4339 13.7394 58.5145 14.1465H58.5375C58.5935 13.7476 58.6815 13.324 58.8008 12.8691L59.2722 11.0571L60.1188 11.0563ZM64.5863 14.9353H63.7241V12.7079C63.7241 12.0219 63.4608 11.6781 62.9416 11.6781C62.4307 11.6781 62.0794 12.1174 62.0794 12.6281V14.9353H61.2172V12.1651C61.2172 11.8221 61.209 11.4544 61.1851 11.0555H61.9437L61.984 11.6543H62.0078C62.2398 11.2397 62.7104 10.9765 63.2378 10.9765C64.0523 10.9765 64.5871 11.5992 64.5871 12.6125L64.5863 14.9353ZM66.964 14.9353H66.101V9.27637H66.964V14.9353ZM70.1077 15.0233C68.9748 15.0233 68.2392 14.1769 68.2392 13.0279C68.2392 11.8303 68.9896 10.9765 70.171 10.9765C71.2891 10.9765 72.0395 11.7826 72.0395 12.9645C72.0403 14.1769 71.2653 15.0233 70.1077 15.0233ZM70.1398 11.6066C69.517 11.6066 69.1179 12.1889 69.1179 13.0032C69.1179 13.8019 69.526 14.3842 70.1307 14.3842C70.7379 14.3842 71.1443 13.7616 71.1443 12.9868C71.1452 12.1971 70.7469 11.6066 70.1398 11.6066ZM75.439 14.9353L75.3765 14.4887H75.3535C75.0902 14.8481 74.706 15.0233 74.2189 15.0233C73.5237 15.0233 73.03 14.5364 73.03 13.8817C73.03 12.9242 73.8602 12.4291 75.2975 12.4291V12.3575C75.2975 11.8467 75.0268 11.5909 74.492 11.5909C74.1095 11.5909 73.7738 11.6872 73.4784 11.8788L73.3032 11.3121C73.6619 11.0884 74.1095 10.9765 74.6352 10.9765C75.6488 10.9765 76.1606 11.5112 76.1606 12.5813V14.01C76.1606 14.4015 76.1778 14.705 76.2165 14.9361L75.439 14.9353ZM75.3205 13.0032C74.3629 13.0032 73.8824 13.2352 73.8824 13.7854C73.8824 14.1926 74.13 14.3916 74.4739 14.3916C74.9125 14.3916 75.3205 14.0569 75.3205 13.602V13.0032ZM80.3475 14.9353L80.3072 14.3127H80.2833C80.0356 14.7831 79.6193 15.0233 79.0377 15.0233C78.1022 15.0233 77.4095 14.2008 77.4095 13.0435C77.4095 11.8303 78.1277 10.9757 79.1084 10.9757C79.6276 10.9757 79.9953 11.1509 80.2027 11.5029H80.2199V9.27637H81.083V13.8899C81.083 14.2649 81.092 14.6162 81.1151 14.9353H80.3475ZM80.2199 12.6528C80.2199 12.1099 79.8604 11.6469 79.3116 11.6469C78.6724 11.6469 78.2816 12.2136 78.2816 13.0114C78.2816 13.7936 78.6872 14.3291 79.2944 14.3291C79.8366 14.3291 80.2199 13.8578 80.2199 13.2993V12.6528ZM86.555 15.0233C85.4221 15.0233 84.6874 14.1769 84.6874 13.0279C84.6874 11.8303 85.4377 10.9765 86.6192 10.9765C87.7373 10.9765 88.4876 11.7826 88.4876 12.9645C88.4885 14.1769 87.7143 15.0233 86.555 15.0233ZM86.5871 11.6066C85.9651 11.6066 85.5661 12.1889 85.5661 13.0032C85.5661 13.8019 85.9733 14.3842 86.5789 14.3842C87.1861 14.3842 87.5925 13.7616 87.5925 12.9868C87.5941 12.1971 87.1951 11.6066 86.5871 11.6066ZM93.1246 14.9353H92.2615V12.7079C92.2615 12.0219 91.9982 11.6781 91.4791 11.6781C90.9682 11.6781 90.6177 12.1174 90.6177 12.6281V14.9353H89.7546V12.1651C89.7546 11.8221 89.7464 11.4544 89.7226 11.0555H90.4811L90.5214 11.6543H90.5453C90.7765 11.2397 91.2479 10.9757 91.7745 10.9757C92.589 10.9757 93.1246 11.5983 93.1246 12.6117V14.9353ZM98.9257 11.7028H97.9771V13.5864C97.9771 14.0659 98.1433 14.3053 98.4789 14.3053C98.6312 14.3053 98.7587 14.2888 98.8615 14.2649L98.8854 14.9197C98.7184 14.9838 98.4946 15.0159 98.2165 15.0159C97.5369 15.0159 97.1305 14.6408 97.1305 13.6588V11.7028H96.5644V11.0563H97.1305V10.3456L97.9771 10.0898V11.0555H98.9257V11.7028ZM103.49 14.9353H102.629V12.7244C102.629 12.0302 102.366 11.6789 101.846 11.6789C101.4 11.6789 100.983 11.9825 100.983 12.5969V14.9353H100.122V9.27637H100.983V11.6066H101.001C101.272 11.1838 101.665 10.9757 102.167 10.9757C102.988 10.9757 103.49 11.614 103.49 12.6281V14.9353ZM108.167 13.2031H105.579C105.596 13.9376 106.082 14.3521 106.802 14.3521C107.184 14.3521 107.536 14.288 107.847 14.1687L107.982 14.7675C107.615 14.9271 107.183 15.0069 106.68 15.0069C105.466 15.0069 104.748 14.2403 104.748 13.0517C104.748 11.8624 105.484 10.9683 106.583 10.9683C107.574 10.9683 108.196 11.7028 108.196 12.8124C108.202 12.9433 108.192 13.0745 108.167 13.2031ZM107.376 12.5887C107.376 11.9899 107.074 11.5671 106.523 11.5671C106.028 11.5671 105.636 11.9981 105.58 12.5887H107.376Z" fill="white"/>
<rect x="0.5" y="0.5" width="127" height="39" rx="3.5" stroke="#2A2B2F"/>
</svg>
