<?xml version="1.0" encoding="UTF-8"?>
<svg width="21px" height="21px" viewBox="0 0 21 21" version="1.1" xmlns="http://www.w3.org/2000/svg" xmlns:xlink="http://www.w3.org/1999/xlink">
    <!-- Generator: Sketch 51.3 (57544) - http://www.bohemiancoding.com/sketch -->
    <title>Shape</title>
    <desc>Created with Sketch.</desc>
    <defs></defs>
    <g id="Page-1" stroke="none" stroke-width="1" fill="none" fill-rule="evenodd">
        <g id="bitcointalk" fill="#FFFFFF" fill-rule="nonzero">
            <path d="M10.5,20.4563404 C4.70113636,20.4563404 0,15.877577 0,10.2286774 C0,4.57876336 4.70113636,0 10.5,0 C16.2988636,0 21,4.5797777 21,10.2286774 C20.9981357,12.0586564 20.5011144,13.8494691 19.5681818,15.3876473 C19.3467273,15.7558554 19.0699091,16.6586244 19.5681818,18.2825943 C19.7342727,18.8242557 20.2115455,19.7249961 21,20.9858297 C20.0206364,21.0537909 19.1357727,20.8772945 18.3454091,20.4563404 C17.1121364,19.7990434 16.2711818,18.7796244 16.0086818,18.9368483 C14.3267819,19.9404525 12.4289103,20.4639536 10.5,20.4563404 Z M14.8498636,8.69701307 C15.0503182,7.27489827 14.0308636,6.51008046 12.6372273,5.99986381 L13.0887273,4.07260409 L11.9852727,3.78047209 L11.5442727,5.65701445 C11.2503345,5.58018882 10.9556835,5.50647593 10.6603636,5.43588676 L11.1042273,3.54717223 L10.0007727,3.25504023 L9.54831818,5.1812856 C9.31296241,5.12490333 9.07813292,5.06606836 8.84386364,5.00478919 L8.84386364,4.9987031 L7.32231818,4.59499291 L7.02927273,5.84771173 C7.02927273,5.84771173 7.84827273,6.04753813 7.83109091,6.0597103 C8.27781818,6.17838892 8.35895455,6.49283656 8.34463636,6.74236598 L7.82918182,8.93741336 C7.86068182,8.94552814 7.90077273,8.95770031 7.94468182,8.97595856 L7.82822727,8.94552814 L7.10659091,12.0210289 C7.05122727,12.1650662 6.91281818,12.3821365 6.60068182,12.2989601 C6.61118182,12.316204 5.79886364,12.0859471 5.79886364,12.0859471 L5.25,13.4299572 L6.68659091,13.8103374 C6.95386364,13.8813417 7.21636364,13.9553891 7.47313636,14.0263934 L7.01686364,15.9749544 L8.11936364,16.2681007 L8.57181818,14.3398267 C8.8725,14.4260462 9.16554545,14.5061796 9.45095455,14.5822556 L9.00040909,16.5014006 L10.1038636,16.7935326 L10.5610909,14.8480146 C12.4434545,15.2263661 13.8590455,15.0742141 14.4537273,13.265633 C14.9338636,11.8090303 14.4308182,10.9681365 13.44,10.420389 C14.1616364,10.2428782 14.7047727,9.73874767 14.8498636,8.69701307 Z M12.6687273,8.67672613 C12.3575455,10.0014636 10.4360455,9.32793704 9.81272727,9.16361279 L10.3625455,6.82047071 C10.9858636,6.98580931 12.9932727,7.29417087 12.6687273,8.67672613 Z M12.3279545,12.4551695 C11.9862273,13.9117721 9.67813636,13.1246387 8.92977273,12.926841 L9.53590909,10.3453273 C10.2842727,10.543125 12.6830455,10.9366917 12.3279545,12.4551695 Z" id="Shape"></path>
        </g>
    </g>
</svg>