<svg width="8" height="7" viewBox="0 0 8 7" fill="none" xmlns="http://www.w3.org/2000/svg">
<path d="M0.976633 1.37782L0.9767 1.37789L3.02869 3.56897L0.976633 5.76443C0.874456 5.87375 0.874456 6.04863 0.976633 6.15795C1.08241 6.27111 1.25713 6.27111 1.36291 6.15795L3.5948 3.7701C3.64617 3.71513 3.67143 3.64602 3.67143 3.57334C3.67143 3.50633 3.64696 3.43239 3.5948 3.37658L1.36383 0.989716C1.25813 0.870943 1.08254 0.870992 0.976633 0.984301C0.874456 1.09362 0.874456 1.2685 0.976633 1.37782Z" fill="#878788" stroke="#878788" stroke-width="0.2"/>
<path d="M4.54695 1.37782L4.54701 1.37789L6.599 3.56897L4.54695 5.76443C4.44477 5.87375 4.44477 6.04863 4.54695 6.15795C4.65272 6.27111 4.82745 6.27111 4.93322 6.15795L7.16511 3.7701C7.21648 3.71513 7.24174 3.64602 7.24174 3.57334C7.24174 3.50633 7.21727 3.43239 7.16511 3.37658L4.93414 0.989716C4.82844 0.870943 4.65285 0.870992 4.54695 0.984301C4.44477 1.09362 4.44477 1.2685 4.54695 1.37782Z" fill="#878788" stroke="#878788" stroke-width="0.2"/>
</svg>
