<?xml version="1.0" encoding="utf-8"?>
<!-- Generator: Adobe Illustrator 23.0.4, SVG Export Plug-In . SVG Version: 6.00 Build 0)  -->
<svg version="1.1" id="Слой_1" xmlns="http://www.w3.org/2000/svg" xmlns:xlink="http://www.w3.org/1999/xlink" x="0px" y="0px"
	 viewBox="0 0 107.8 23.6" style="enable-background:new 0 0 107.8 23.6;" xml:space="preserve">
<style type="text/css">
	.st0{fill:#FFFFFF;}
	.st1{fill:url(#SVGID_1_);}
</style>
<path class="st0" d="M9.7,20.2c1.5,0,2.3-0.5,2.3-1.5v-3.1H8v-3.1h9.3v6.7c0,1.3-0.7,2.3-2,3c-1.2,0.7-2.7,1.1-4.5,1.1H6.5
	c-2.8,0-4.8-0.8-5.9-2.4C0.2,20.4,0,19.8,0,19.2V4.3c0-1.3,0.6-2.2,1.9-3c1.3-0.8,2.8-1.2,4.6-1.2h4.3c1.8,0,3.3,0.4,4.6,1.1
	c1.3,0.7,1.9,1.7,1.9,3v3.1H12V4.8c0-1-0.8-1.5-2.3-1.5H7.5C6,3.3,5.3,3.8,5.3,4.8v13.8c0,1,0.8,1.5,2.3,1.5H9.7z"/>
<path class="st0" d="M31.1,20.2c1.5,0,2.2-0.5,2.2-1.5V4.8c0-1-0.7-1.5-2.2-1.5h-2.4c-1.5,0-2.3,0.5-2.3,1.5v13.8
	c0,1,0.8,1.5,2.3,1.5H31.1z M21.2,4.3c0-1.3,0.6-2.2,1.9-3c1.3-0.8,2.8-1.2,4.6-1.2h4.5c2.8,0,4.8,0.8,5.9,2.4
	c0.4,0.5,0.5,1.1,0.5,1.8v14.8c0,1.3-0.6,2.3-1.9,3c-1.2,0.7-2.8,1.1-4.6,1.1h-4.5c-2.8,0-4.8-0.8-5.9-2.4c-0.4-0.5-0.5-1.1-0.5-1.8
	V4.3z"/>
<path class="st0" d="M52.3,20.2c1.5,0,2.3-0.5,2.3-1.5V4.8c0-1-0.8-1.5-2.3-1.5h-4.2v16.9H52.3z M53.4,0.2c1.8,0,3.3,0.4,4.5,1.1
	c1.3,0.7,1.9,1.7,1.9,3v14.8c0,1.3-0.7,2.3-2,3c-1.2,0.7-2.7,1.1-4.4,1.1H42.9V0.2H53.4z"/>
<polygon class="st0" points="68.4,3.3 68.4,9.5 76.6,9.5 76.6,12.6 68.4,12.6 68.4,20.2 78.8,20.2 78.8,20.5 76.7,23.3 63.1,23.3 
	63.1,0.2 78.8,0.2 78.8,3.3 "/>
<polygon class="st0" points="91.4,4.1 87.7,9 81.3,0.2 88.6,0.2 "/>
<polygon class="st0" points="105.5,23.3 98.2,23.3 95.7,19.9 99.5,15.1 "/>
<linearGradient id="SVGID_1_" gradientUnits="userSpaceOnUse" x1="93.6709" y1="32.3072" x2="93.6709" y2="2.6928" gradientTransform="matrix(1 0 0 -1 0 26.4078)">
	<stop  offset="0" style="stop-color:#24BEFC"/>
	<stop  offset="1" style="stop-color:#1265E7"/>
</linearGradient>
<path class="st1" d="M105.6,2.4l1.7-2.2h-2.7h-3.6c-1.9,0-3.7,0.9-4.9,2.5L81.8,21.3l-1.7,2.2h2.7h3.6c1.9,0,3.7-0.9,4.9-2.5
	L105.6,2.4z"/>
</svg>
