<svg width="113" height="25" viewBox="0 0 113 25" fill="none" xmlns="http://www.w3.org/2000/svg">
<path fill-rule="evenodd" clip-rule="evenodd" d="M96.7809 4.49745L93.5259 0H85.8496L92.8206 9.60176L96.7809 4.49745ZM101.042 20.8363L105.01 15.7219L111.435 24.53H103.759L101.042 20.8363ZM83.2597 21.9247L81.2383 24.53H66.6254V0H83.2597V3.27847H72.1895V9.83541H80.8834V13.1139H72.1895V21.2515H83.2597V21.9247ZM10.2588 21.2515C11.843 21.2515 12.6351 20.7051 12.6351 19.6123V16.2753H8.40409V12.9968H18.1992V20.1392C18.1992 21.5052 17.5037 22.5785 16.1127 23.3591C14.8376 24.1397 13.2533 24.53 11.36 24.53H6.83919C3.86395 24.53 1.77742 23.6908 0.579593 22.0126C0.193197 21.4662 0 20.8417 0 20.1392V4.39081C0 3.06381 0.656871 2.01001 1.97061 1.22943C3.323 0.409808 4.94586 0 6.83919 0H11.36C13.2533 0 14.8569 0.390293 16.1706 1.17088C17.523 1.95147 18.1992 3.02478 18.1992 4.39081V7.66928H12.6351V4.9177C12.6351 3.82488 11.843 3.27847 10.2588 3.27847H7.94042C6.3562 3.27847 5.56409 3.82488 5.56409 4.9177V19.6123C5.56409 20.7051 6.3562 21.2515 7.94042 21.2515H10.2588ZM32.8468 21.2515C34.3924 21.2515 35.1652 20.7051 35.1652 19.6123V4.9177C35.1652 3.82488 34.3924 3.27847 32.8468 3.27847H30.2966C28.7124 3.27847 27.9203 3.82488 27.9203 4.9177V19.6123C27.9203 20.7051 28.7124 21.2515 30.2966 21.2515H32.8468ZM22.3562 4.39081C22.3562 3.06381 23.0131 2.01001 24.3268 1.22943C25.6792 0.409808 27.3021 0 29.1954 0H33.948C36.9233 0 39.0098 0.839132 40.2076 2.5174C40.594 3.06381 40.7872 3.68828 40.7872 4.39081V20.1392C40.7872 21.4662 40.111 22.5395 38.7587 23.3591C37.4449 24.1397 35.8414 24.53 33.948 24.53H29.1954C26.2201 24.53 24.1336 23.6908 22.9358 22.0126C22.5494 21.4662 22.3562 20.8417 22.3562 20.1392V4.39081ZM57.6573 19.6123C57.6573 20.7051 56.8652 21.2515 55.281 21.2515H50.8182V3.27847H55.281C56.8652 3.27847 57.6573 3.82488 57.6573 4.9177V19.6123ZM61.1929 1.17088C59.8791 0.390293 58.2949 0 56.4402 0H45.2541V24.53H56.4402C58.2949 24.53 59.8598 24.1397 61.1349 23.3591C62.5259 22.5785 63.2214 21.5052 63.2214 20.1392V4.39081C63.2214 3.02478 62.5452 1.95147 61.1929 1.17088Z" fill="black"/>
<path fill-rule="evenodd" clip-rule="evenodd" d="M96.7809 4.49745L93.5259 0H85.8496L92.8206 9.60176L96.7809 4.49745ZM101.042 20.8363L105.01 15.7219L111.435 24.53H103.759L101.042 20.8363ZM83.2597 21.9247L81.2383 24.53H66.6254V0H83.2597V3.27847H72.1895V9.83541H80.8834V13.1139H72.1895V21.2515H83.2597V21.9247ZM10.2588 21.2515C11.843 21.2515 12.6351 20.7051 12.6351 19.6123V16.2753H8.40409V12.9968H18.1992V20.1392C18.1992 21.5052 17.5037 22.5785 16.1127 23.3591C14.8376 24.1397 13.2533 24.53 11.36 24.53H6.83919C3.86395 24.53 1.77742 23.6908 0.579593 22.0126C0.193197 21.4662 0 20.8417 0 20.1392V4.39081C0 3.06381 0.656871 2.01001 1.97061 1.22943C3.323 0.409808 4.94586 0 6.83919 0H11.36C13.2533 0 14.8569 0.390293 16.1706 1.17088C17.523 1.95147 18.1992 3.02478 18.1992 4.39081V7.66928H12.6351V4.9177C12.6351 3.82488 11.843 3.27847 10.2588 3.27847H7.94042C6.3562 3.27847 5.56409 3.82488 5.56409 4.9177V19.6123C5.56409 20.7051 6.3562 21.2515 7.94042 21.2515H10.2588ZM32.8468 21.2515C34.3924 21.2515 35.1652 20.7051 35.1652 19.6123V4.9177C35.1652 3.82488 34.3924 3.27847 32.8468 3.27847H30.2966C28.7124 3.27847 27.9203 3.82488 27.9203 4.9177V19.6123C27.9203 20.7051 28.7124 21.2515 30.2966 21.2515H32.8468ZM22.3562 4.39081C22.3562 3.06381 23.0131 2.01001 24.3268 1.22943C25.6792 0.409808 27.3021 0 29.1954 0H33.948C36.9233 0 39.0098 0.839132 40.2076 2.5174C40.594 3.06381 40.7872 3.68828 40.7872 4.39081V20.1392C40.7872 21.4662 40.111 22.5395 38.7587 23.3591C37.4449 24.1397 35.8414 24.53 33.948 24.53H29.1954C26.2201 24.53 24.1336 23.6908 22.9358 22.0126C22.5494 21.4662 22.3562 20.8417 22.3562 20.1392V4.39081ZM57.6573 19.6123C57.6573 20.7051 56.8652 21.2515 55.281 21.2515H50.8182V3.27847H55.281C56.8652 3.27847 57.6573 3.82488 57.6573 4.9177V19.6123ZM61.1929 1.17088C59.8791 0.390293 58.2949 0 56.4402 0H45.2541V24.53H56.4402C58.2949 24.53 59.8598 24.1397 61.1349 23.3591C62.5259 22.5785 63.2214 21.5052 63.2214 20.1392V4.39081C63.2214 3.02478 62.5452 1.95147 61.1929 1.17088Z" fill="black"/>
<path d="M113 0.124512H106.391C104.61 0.124512 102.936 0.979293 101.88 2.42725L84.9864 24.5301H91.5956C93.3761 24.5301 95.0506 23.6753 96.1065 22.2273L113 0.124512Z" fill="url(#paint0_linear)"/>
<defs>
<linearGradient id="paint0_linear" x1="107.758" y1="-8.7725" x2="107.758" y2="26.4891" gradientUnits="userSpaceOnUse">
<stop stop-color="#24BEFC"/>
<stop offset="1" stop-color="#1265E7"/>
</linearGradient>
</defs>
</svg>
