<svg width="21" height="21" viewBox="0 0 21 21" fill="none" xmlns="http://www.w3.org/2000/svg">
  <path d="M12.5759 13.5491C12.4821 13.442 12.3214 13.442 12.2277 13.5491C11.8125 13.9643 10.9152 14.1116 10.2857 14.1116C9.65625 14.1116 8.75893 13.9643 8.34375 13.5491C8.25 13.442 8.08929 13.442 7.99554 13.5491C7.90179 13.6429 7.90179 13.8036 7.99554 13.8973C8.65179 14.5536 9.91071 14.6071 10.2857 14.6071C10.6607 14.6071 11.9196 14.5536 12.5759 13.8973C12.6696 13.8036 12.6696 13.6429 12.5759 13.5491ZM9.05357 11.4598C9.05357 10.8839 8.58482 10.4286 8.02232 10.4286C7.45982 10.4286 6.99107 10.8839 6.99107 11.4598C6.99107 12.0223 7.45982 12.4911 8.02232 12.4911C8.58482 12.4911 9.05357 12.0223 9.05357 11.4598ZM13.5804 11.4598C13.5804 10.8839 13.1116 10.4286 12.5491 10.4286C11.9866 10.4286 11.5179 10.8839 11.5179 11.4598C11.5179 12.0223 11.9866 12.4911 12.5491 12.4911C13.1116 12.4911 13.5804 12.0223 13.5804 11.4598ZM16.4598 10.0804C16.4598 10.6161 16.1518 11.0848 15.7098 11.3125C15.7634 11.5268 15.7902 11.7411 15.7902 11.9688C15.7902 14.1518 13.3259 15.9196 10.2991 15.9196C7.27232 15.9196 4.82143 14.1518 4.82143 11.9688C4.82143 11.7545 4.84821 11.5268 4.88839 11.3259C4.43304 11.0982 4.11161 10.6295 4.11161 10.0804C4.11161 9.33036 4.72768 8.71428 5.49107 8.71428C5.87946 8.71428 6.22768 8.875 6.48214 9.14286C7.40625 8.5 8.65179 8.08482 10.0313 8.03125L10.8348 4.44196C10.8616 4.32143 10.9821 4.22768 11.1161 4.26786L13.6473 4.83036C13.8214 4.48214 14.1696 4.25446 14.5714 4.25446C15.1339 4.25446 15.6027 4.72321 15.6027 5.28571C15.6027 5.84821 15.1339 6.31696 14.5714 6.31696C14.0089 6.31696 13.5536 5.86161 13.5402 5.29911L11.25 4.77678L10.5268 8.03125C11.9063 8.07143 13.1652 8.48661 14.1027 9.12946C14.3571 8.875 14.7054 8.71428 15.0804 8.71428C15.8438 8.71428 16.4598 9.33036 16.4598 10.0804ZM20.5714 4C20.5714 1.87053 18.8438 0.142856 16.7143 0.142856H3.85714C1.72768 0.142856 0 1.87053 0 4V16.8571C0 18.9866 1.72768 20.7143 3.85714 20.7143H16.7143C18.8438 20.7143 20.5714 18.9866 20.5714 16.8571V4Z" fill="white"/>
</svg>
