<svg width="512" height="480" viewBox="0 0 512 480" fill="none" xmlns="http://www.w3.org/2000/svg">
<path d="M32.2422 292.996C30.9219 300.215 30 307.523 30 315C30 405.98 132.93 480 257 480C381.07 480 482 405.98 482 315C482 307.523 481.078 300.215 479.758 292.996C499.211 282.855 512 262.828 512 240C512 206.91 485.09 180 452 180C436.879 180 422.672 185.668 411.777 195.551C374.074 169.266 324.051 152.547 268.742 150.438L297.445 39.0977L362.176 61.7461C363.125 94.0156 389.508 120 422 120C455.09 120 482 93.0898 482 60C482 26.9102 455.09 0 422 0C398.93 0 379.094 13.2266 369.059 32.3633L276.555 0.015625L237.68 150.719C185.367 154 136.203 170.465 100.223 195.551C89.3281 185.668 75.1211 180 60 180C26.9102 180 0 206.91 0 240C0 262.828 12.7891 282.855 32.2422 292.996V292.996ZM347 240C371.812 240 392 260.188 392 285C392 309.812 371.812 330 347 330C322.188 330 302 309.812 302 285C302 260.188 322.188 240 347 240V240ZM340.586 372.512L353.414 399.609C325.262 412.953 291.922 420 257 420C222.078 420 186.738 412.953 158.586 399.609L171.414 372.508C219.758 395.391 292.242 395.391 340.586 372.512ZM165 240C189.812 240 210 260.188 210 285C210 309.812 189.812 330 165 330C140.188 330 120 309.812 120 285C120 260.188 140.188 240 165 240V240Z" fill="white"/>
</svg>
