<svg width="858" height="93" viewBox="0 0 858 93" fill="none" xmlns="http://www.w3.org/2000/svg">
<path d="M12.416 68.656L11.9998 69.5654L12.0127 69.5711L12.416 68.656ZM3.488 61.36L2.66104 61.9223L2.66641 61.9301L3.488 61.36ZM0.128 49.744V48.744H-0.886184L-0.871901 49.7581L0.128 49.744ZM13.088 49.744L14.0872 49.7032L14.048 48.744H13.088V49.744ZM16.448 57.712L15.7304 58.4085L15.7408 58.4192L15.7515 58.4296L16.448 57.712ZM33.152 58.576L33.7767 59.3569L33.7845 59.3506L33.7922 59.3442L33.152 58.576ZM33.44 45.808L32.7617 46.5428L32.7686 46.5492L32.7756 46.5554L33.44 45.808ZM26.72 42.064L26.3973 43.0105H26.3973L26.72 42.064ZM17.696 38.992L17.3693 39.9371L17.3741 39.9388L17.696 38.992ZM5.792 32.08L5.06859 32.7705L5.07681 32.7789L5.792 32.08ZM1.76 20.848H2.76V20.8399L2.75987 20.8319L1.76 20.848ZM4.544 10.672L3.72048 10.1047L3.71777 10.1087L4.544 10.672ZM12.608 4.048L13.0205 4.95895L13.0276 4.95575L13.0346 4.95243L12.608 4.048ZM36.128 4.048L35.7014 4.95245L35.7079 4.95546L36.128 4.048ZM44.192 10.768L43.36 11.3227L43.3642 11.329L43.3685 11.3353L44.192 10.768ZM47.36 21.04V22.04H48.3928L48.3595 21.0078L47.36 21.04ZM34.208 21.04L33.2084 21.067L33.2347 22.04H34.208V21.04ZM31.424 14.8L30.6921 15.4814L30.7043 15.4945L30.7169 15.5071L31.424 14.8ZM24.128 12.016L24.1042 13.0157L24.1161 13.016H24.128V12.016ZM17.312 14.032L17.912 14.832L17.9164 14.8287L17.312 14.032ZM16.736 25.36L16.0455 26.0834L16.0543 26.0918L16.0633 26.0999L16.736 25.36ZM22.496 28.624L22.8417 27.6857L22.496 28.624ZM30.848 31.504L31.1751 30.559L31.1668 30.5561L31.1584 30.5534L30.848 31.504ZM39.968 35.536L40.4554 34.6628L39.968 35.536ZM46.592 41.68L45.7535 42.225L45.76 42.2347L46.592 41.68ZM46.4 61.168L47.2591 61.6798L46.4 61.168ZM38.432 68.464L38.8857 69.3552L38.8921 69.3519L38.8984 69.3486L38.432 68.464ZM25.472 70.152C20.6563 70.152 16.446 69.3391 12.8193 67.7409L12.0127 69.5711C15.938 71.3009 20.4317 72.152 25.472 72.152V70.152ZM12.8321 67.7467C9.20445 66.0866 6.37441 63.7657 4.30959 60.7899L2.66641 61.9301C4.95359 65.2263 8.07555 67.7694 11.9999 69.5653L12.8321 67.7467ZM4.31493 60.7977C2.26708 57.7861 1.18963 54.113 1.1279 49.7299L-0.871901 49.7581C-0.805634 54.463 0.356924 58.5339 2.66107 61.9223L4.31493 60.7977ZM0.128 50.744H13.088V48.744H0.128V50.744ZM12.0888 49.7848C12.2265 53.1571 13.4406 56.0493 15.7304 58.4085L17.1656 57.0155C15.2314 55.0227 14.2055 52.6029 14.0872 49.7032L12.0888 49.7848ZM15.7515 58.4296C18.1573 60.7646 21.4071 61.88 25.376 61.88V59.88C21.7929 59.88 19.0907 58.8834 17.1445 56.9944L15.7515 58.4296ZM25.376 61.88C28.7925 61.88 31.6288 61.0752 33.7767 59.3569L32.5273 57.7951C30.8352 59.1488 28.4875 59.88 25.376 59.88V61.88ZM33.7922 59.3442C35.9529 57.5436 37.032 55.1438 37.032 52.24H35.032C35.032 54.5842 34.1911 56.4084 32.5118 57.8078L33.7922 59.3442ZM37.032 52.24C37.032 49.2618 36.0866 46.8226 34.1044 45.0606L32.7756 46.5554C34.2494 47.8654 35.032 49.7142 35.032 52.24H37.032ZM34.1183 45.0732C32.325 43.4179 29.9512 42.109 27.0427 41.1175L26.3973 43.0105C29.1208 43.939 31.227 45.1261 32.7617 46.5428L34.1183 45.0732ZM27.0427 41.1175C24.2264 40.1574 21.2181 39.1333 18.0179 38.0452L17.3741 39.9388C20.5739 41.0267 23.5816 42.0506 26.3973 43.0105L27.0427 41.1175ZM18.0227 38.0469C12.9312 36.2869 9.1165 34.0511 6.50719 31.3811L5.07681 32.7789C7.97151 35.7409 12.0928 38.1131 17.3693 39.9371L18.0227 38.0469ZM6.51536 31.3895C4.0394 28.7957 2.76 25.3175 2.76 20.848H0.76C0.76 25.7225 2.1686 29.7323 5.06865 32.7705L6.51536 31.3895ZM2.75987 20.8319C2.69864 17.0353 3.58481 13.854 5.37023 11.2353L3.71777 10.1087C1.66319 13.122 0.693365 16.7247 0.76013 20.8641L2.75987 20.8319ZM5.36751 11.2393C7.24158 8.51888 9.78306 6.42496 13.0205 4.95895L12.1955 3.13704C8.64895 4.74303 5.81442 7.06512 3.72049 10.1047L5.36751 11.2393ZM13.0346 4.95243C16.2716 3.42557 20.0256 2.648 24.32 2.648V0.647999C19.7824 0.647999 15.7284 1.47043 12.1814 3.14357L13.0346 4.95243ZM24.32 2.648C28.6808 2.648 32.4662 3.42642 35.7014 4.95243L36.5546 3.14357C33.0058 1.46957 28.9192 0.647999 24.32 0.647999V2.648ZM35.7079 4.95546C39.014 6.48608 41.5522 8.61111 43.36 11.3227L45.0241 10.2133C42.9918 7.16488 40.154 4.80991 36.5481 3.14053L35.7079 4.95546ZM43.3685 11.3353C45.2296 14.0369 46.2378 17.2691 46.3605 21.0722L48.3595 21.0078C48.2262 16.8748 47.1224 13.2591 45.0155 10.2007L43.3685 11.3353ZM47.36 20.04H34.208V22.04H47.36V20.04ZM35.2076 21.013C35.1362 18.3702 34.0902 16.0519 32.1311 14.0929L30.7169 15.5071C32.3418 17.132 33.1518 18.9737 33.2084 21.067L35.2076 21.013ZM32.1559 14.1186C30.1955 12.013 27.4712 11.016 24.128 11.016V13.016C27.0568 13.016 29.1965 13.875 30.6921 15.4814L32.1559 14.1186ZM24.1518 11.0163C21.2741 10.9478 18.7711 11.6699 16.7076 13.2353L17.9164 14.8287C19.5649 13.5781 21.606 12.9562 24.1042 13.0157L24.1518 11.0163ZM16.712 13.232C14.623 14.7987 13.624 17.1064 13.624 19.984H15.624C15.624 17.6136 16.417 15.9533 17.912 14.832L16.712 13.232ZM13.624 19.984C13.624 22.4523 14.4095 24.5217 16.0455 26.0834L17.4265 24.6366C16.2465 23.5103 15.624 21.9957 15.624 19.984H13.624ZM16.0633 26.0999C17.5942 27.4917 19.6385 28.637 22.1503 29.5623L22.8417 27.6857C20.4895 26.819 18.6938 25.7883 17.4087 24.6201L16.0633 26.0999ZM22.1503 29.5623C24.5966 30.4636 27.3928 31.4277 30.5376 32.4546L31.1584 30.5534C28.0312 29.5323 25.2594 28.5764 22.8417 27.6857L22.1503 29.5623ZM30.5209 32.449C33.7998 33.584 36.7854 34.9049 39.4806 36.4092L40.4554 34.6628C37.6466 33.0951 34.5522 31.728 31.1751 30.559L30.5209 32.449ZM39.4806 36.4092C42.0954 37.8686 44.1811 39.8058 45.7536 42.225L47.4304 41.135C45.6749 38.4342 43.3446 36.2754 40.4554 34.6628L39.4806 36.4092ZM45.76 42.2347C47.2842 44.5211 48.088 47.5428 48.088 51.376H50.088C50.088 47.2732 49.2278 43.8309 47.424 41.1253L45.76 42.2347ZM48.088 51.376C48.088 54.7168 47.2402 57.8039 45.5409 60.6562L47.2591 61.6798C49.1438 58.5161 50.088 55.0752 50.088 51.376H48.088ZM45.5409 60.6562C43.8554 63.4855 41.3456 65.7972 37.9656 67.5794L38.8984 69.3486C42.5584 67.4188 45.3606 64.8665 47.2591 61.6798L45.5409 60.6562ZM37.9783 67.5728C34.6342 69.2753 30.4795 70.152 25.472 70.152V72.152C30.7045 72.152 35.1898 71.2367 38.8857 69.3552L37.9783 67.5728ZM105.409 22.384H106.409V21.384H105.409V22.384ZM105.409 70V71H106.409V70H105.409ZM94.5612 70L93.5683 70.1182L93.6732 71H94.5612V70ZM93.6012 61.936L94.5942 61.8178L94.2122 58.6086L92.715 61.4727L93.6012 61.936ZM87.1693 68.656L86.6605 67.795L86.6518 67.8003L87.1693 68.656ZM63.6493 65.584L62.8983 66.2443L63.6493 65.584ZM58.7533 22.384V21.384H57.7533V22.384H58.7533ZM71.0413 22.384H72.0413V21.384H71.0413V22.384ZM73.5373 57.52L74.3316 56.9126L73.5373 57.52ZM89.7613 57.136L89.0257 56.4585L89.0208 56.4638L89.016 56.4692L89.7613 57.136ZM93.1213 22.384V21.384H92.1213V22.384H93.1213ZM104.409 22.384V70H106.409V22.384H104.409ZM105.409 69H94.5612V71H105.409V69ZM95.5542 69.8818L94.5942 61.8178L92.6083 62.0542L93.5683 70.1182L95.5542 69.8818ZM92.715 61.4727C91.332 64.1186 89.3211 66.2229 86.6605 67.7951L87.678 69.5169C90.6494 67.7611 92.9265 65.3854 94.4875 62.3993L92.715 61.4727ZM86.6518 67.8003C84.0813 69.3545 81.003 70.152 77.3773 70.152V72.152C81.3035 72.152 84.7532 71.2855 87.6867 69.5117L86.6518 67.8003ZM77.3773 70.152C71.7165 70.152 67.4379 68.3783 64.4002 64.9237L62.8983 66.2443C66.3886 70.2137 71.262 72.152 77.3773 72.152V70.152ZM64.4002 64.9237C61.3558 61.4614 59.7533 56.2965 59.7533 49.264H57.7533C57.7533 56.5675 59.4147 62.2826 62.8983 66.2443L64.4002 64.9237ZM59.7533 49.264V22.384H57.7533V49.264H59.7533ZM58.7533 23.384H71.0413V21.384H58.7533V23.384ZM70.0413 22.384V48.112H72.0413V22.384H70.0413ZM70.0413 48.112C70.0413 52.3238 70.8939 55.7095 72.7429 58.1274L74.3316 56.9126C72.8526 54.9785 72.0413 52.0922 72.0413 48.112H70.0413ZM72.7429 58.1274C74.6482 60.619 77.579 61.784 81.3133 61.784V59.784C78.0075 59.784 75.7543 58.773 74.3316 56.9126L72.7429 58.1274ZM81.3133 61.784C85.0348 61.784 88.1285 60.4606 90.5065 57.8028L89.016 56.4692C87.042 58.6754 84.5037 59.784 81.3133 59.784V61.784ZM90.4968 57.8135C92.9549 55.1446 94.1213 51.4816 94.1213 46.96H92.1213C92.1213 51.1424 91.0476 54.2634 89.0257 56.4585L90.4968 57.8135ZM94.1213 46.96V22.384H92.1213V46.96H94.1213ZM93.1213 23.384H105.409V21.384H93.1213V23.384ZM117.927 91.12H116.927V92.12H117.927V91.12ZM117.927 22.384V21.384H116.927V22.384H117.927ZM128.872 22.384L129.853 22.1905L129.694 21.384H128.872V22.384ZM130.215 29.2L129.234 29.3935L129.677 31.6401L131.024 29.7882L130.215 29.2ZM136.264 23.632L135.733 22.7839L135.724 22.7901L136.264 23.632ZM158.152 24.496L158.677 23.6454L158.152 24.496ZM166.504 33.424L165.624 33.9008L166.504 33.424ZM166.504 59.152L167.379 59.6351L167.383 59.6288L166.504 59.152ZM158.152 67.984L158.666 68.8416L158.677 68.8346L158.152 67.984ZM130.215 63.472L131.041 62.9073L129.215 60.2396V63.472H130.215ZM130.215 91.12V92.12H131.215V91.12H130.215ZM153.256 56.464L153.971 57.1623L153.256 56.464ZM153.256 36.016L153.98 35.3263L153.256 36.016ZM133.768 36.016L133.043 35.3263L133.043 35.3268L133.768 36.016ZM133.768 56.464L133.035 57.1444L133.043 57.1535L133.052 57.1623L133.768 56.464ZM118.927 91.12V22.384H116.927V91.12H118.927ZM117.927 23.384H128.872V21.384H117.927V23.384ZM127.89 22.5775L129.234 29.3935L131.197 29.0065L129.853 22.1905L127.89 22.5775ZM131.024 29.7882C132.478 27.7894 134.398 26.0158 136.803 24.4739L135.724 22.7901C133.137 24.4482 131.025 26.3866 129.407 28.6118L131.024 29.7882ZM136.794 24.48C139.15 23.0074 142.246 22.232 146.152 22.232V20.232C141.993 20.232 138.497 21.0566 135.734 22.784L136.794 24.48ZM146.152 22.232C150.462 22.232 154.277 23.2763 157.626 25.3466L158.677 23.6454C154.986 21.3637 150.801 20.232 146.152 20.232V22.232ZM157.626 25.3466C160.992 27.4273 163.656 30.272 165.624 33.9008L167.383 32.9472C165.255 29.024 162.351 25.9167 158.677 23.6454L157.626 25.3466ZM165.624 33.9008C167.584 37.5138 168.576 41.6346 168.576 46.288H170.576C170.576 41.3414 169.519 36.8861 167.383 32.9472L165.624 33.9008ZM168.576 46.288C168.576 50.9414 167.584 55.0621 165.624 58.6752L167.383 59.6288C169.519 55.6898 170.576 51.2346 170.576 46.288H168.576ZM165.628 58.6689C163.661 62.2342 160.996 65.0501 157.626 67.1334L158.677 68.8346C162.347 66.5659 165.25 63.4938 167.379 59.6351L165.628 58.6689ZM157.637 67.1265C154.286 69.1368 150.467 70.152 146.152 70.152V72.152C150.796 72.152 154.977 71.0552 158.666 68.8415L157.637 67.1265ZM146.152 70.152C142.693 70.152 139.716 69.504 137.191 68.2416L136.296 70.0304C139.147 71.456 142.442 72.152 146.152 72.152V70.152ZM137.191 68.2416C134.652 66.972 132.607 65.1962 131.041 62.9073L129.39 64.0367C131.152 66.6118 133.459 68.612 136.296 70.0304L137.191 68.2416ZM129.215 63.472V91.12H131.215V63.472H129.215ZM130.215 90.12H117.927V92.12H130.215V90.12ZM143.56 61.4C147.714 61.4 151.21 59.9927 153.971 57.1623L152.54 55.7657C150.181 58.1833 147.213 59.4 143.56 59.4V61.4ZM153.971 57.1623C156.739 54.3259 158.096 50.6708 158.096 46.288H156.096C156.096 50.2252 154.892 53.3541 152.54 55.7657L153.971 57.1623ZM158.096 46.288C158.096 41.9048 156.739 38.2233 153.98 35.3263L152.531 36.7057C154.892 39.1847 156.096 42.3512 156.096 46.288H158.096ZM153.98 35.3263C151.22 32.429 147.721 30.984 143.56 30.984V32.984C147.206 32.984 150.171 34.227 152.531 36.7057L153.98 35.3263ZM143.56 30.984C139.339 30.984 135.806 32.4254 133.043 35.3263L134.492 36.7057C136.849 34.2306 139.844 32.984 143.56 32.984V30.984ZM133.043 35.3268C130.344 38.1644 129.023 41.8165 129.023 46.192H131.023C131.023 42.2475 132.199 39.1155 134.492 36.7052L133.043 35.3268ZM129.023 46.192C129.023 50.568 130.344 54.2464 133.035 57.1444L134.5 55.7835C132.199 53.3056 131.023 50.136 131.023 46.192H129.023ZM133.052 57.1623C135.816 59.9962 139.347 61.4 143.56 61.4V59.4C139.836 59.4 136.839 58.1798 134.483 55.7657L133.052 57.1623ZM180.553 91.12H179.553V92.12H180.553V91.12ZM180.553 22.384V21.384H179.553V22.384H180.553ZM191.497 22.384L192.478 22.1905L192.319 21.384H191.497V22.384ZM192.84 29.2L191.859 29.3935L192.302 31.6401L193.649 29.7882L192.84 29.2ZM198.889 23.632L198.358 22.7839L198.349 22.7901L198.889 23.632ZM220.777 24.496L221.302 23.6454L220.777 24.496ZM229.129 33.424L228.249 33.9008L229.129 33.424ZM229.129 59.152L230.004 59.6351L230.008 59.6288L229.129 59.152ZM220.777 67.984L221.291 68.8416L221.302 68.8346L220.777 67.984ZM192.84 63.472L193.666 62.9073L191.84 60.2396V63.472H192.84ZM192.84 91.12V92.12H193.84V91.12H192.84ZM215.881 56.464L216.596 57.1623L215.881 56.464ZM215.881 36.016L216.605 35.3263L215.881 36.016ZM196.393 36.016L195.668 35.3263L195.668 35.3268L196.393 36.016ZM196.393 56.464L195.66 57.1444L195.668 57.1535L195.677 57.1623L196.393 56.464ZM181.553 91.12V22.384H179.553V91.12H181.553ZM180.553 23.384H191.497V21.384H180.553V23.384ZM190.515 22.5775L191.859 29.3935L193.822 29.0065L192.478 22.1905L190.515 22.5775ZM193.649 29.7882C195.103 27.7894 197.023 26.0158 199.428 24.4739L198.349 22.7901C195.762 24.4482 193.65 26.3866 192.032 28.6118L193.649 29.7882ZM199.419 24.48C201.775 23.0074 204.871 22.232 208.777 22.232V20.232C204.618 20.232 201.122 21.0566 198.359 22.784L199.419 24.48ZM208.777 22.232C213.087 22.232 216.902 23.2763 220.251 25.3466L221.302 23.6454C217.611 21.3637 213.426 20.232 208.777 20.232V22.232ZM220.251 25.3466C223.617 27.4273 226.281 30.272 228.249 33.9008L230.008 32.9472C227.88 29.024 224.976 25.9167 221.302 23.6454L220.251 25.3466ZM228.249 33.9008C230.209 37.5138 231.201 41.6346 231.201 46.288H233.201C233.201 41.3414 232.144 36.8861 230.008 32.9472L228.249 33.9008ZM231.201 46.288C231.201 50.9414 230.209 55.0621 228.249 58.6752L230.008 59.6288C232.144 55.6898 233.201 51.2346 233.201 46.288H231.201ZM228.253 58.6689C226.286 62.2342 223.621 65.0501 220.251 67.1334L221.302 68.8346C224.972 66.5659 227.875 63.4938 230.004 59.6351L228.253 58.6689ZM220.262 67.1265C216.911 69.1368 213.092 70.152 208.777 70.152V72.152C213.421 72.152 217.602 71.0552 221.291 68.8415L220.262 67.1265ZM208.777 70.152C205.318 70.152 202.341 69.504 199.816 68.2416L198.921 70.0304C201.772 71.456 205.067 72.152 208.777 72.152V70.152ZM199.816 68.2416C197.277 66.972 195.232 65.1962 193.666 62.9073L192.015 64.0367C193.777 66.6118 196.084 68.612 198.921 70.0304L199.816 68.2416ZM191.84 63.472V91.12H193.84V63.472H191.84ZM192.84 90.12H180.553V92.12H192.84V90.12ZM206.185 61.4C210.339 61.4 213.835 59.9927 216.596 57.1623L215.165 55.7657C212.806 58.1833 209.838 59.4 206.185 59.4V61.4ZM216.596 57.1623C219.364 54.3259 220.721 50.6708 220.721 46.288H218.721C218.721 50.2252 217.517 53.3541 215.165 55.7657L216.596 57.1623ZM220.721 46.288C220.721 41.9048 219.364 38.2233 216.605 35.3263L215.156 36.7057C217.517 39.1847 218.721 42.3512 218.721 46.288H220.721ZM216.605 35.3263C213.845 32.429 210.346 30.984 206.185 30.984V32.984C209.831 32.984 212.796 34.227 215.156 36.7057L216.605 35.3263ZM206.185 30.984C201.964 30.984 198.431 32.4254 195.668 35.3263L197.117 36.7057C199.474 34.2306 202.469 32.984 206.185 32.984V30.984ZM195.668 35.3268C192.969 38.1644 191.648 41.8165 191.648 46.192H193.648C193.648 42.2475 194.824 39.1155 197.117 36.7052L195.668 35.3268ZM191.648 46.192C191.648 50.568 192.969 54.2464 195.66 57.1444L197.125 55.7835C194.824 53.3056 193.648 50.136 193.648 46.192H191.648ZM195.677 57.1623C198.441 59.9962 201.972 61.4 206.185 61.4V59.4C202.461 59.4 199.464 58.1798 197.108 55.7657L195.677 57.1623ZM253.546 67.984L253.044 68.8494L253.051 68.8532L253.546 67.984ZM244.809 59.248L243.937 59.7362L243.942 59.745L243.947 59.7537L244.809 59.248ZM244.906 33.232L245.768 33.7377L245.772 33.7313L244.906 33.232ZM253.642 24.4L253.147 23.5308L253.14 23.5346L253.642 24.4ZM278.41 24.4L277.908 25.2654L277.915 25.2692L278.41 24.4ZM287.146 33.232L286.273 33.7202L286.278 33.729L286.283 33.7377L287.146 33.232ZM287.146 59.248L286.279 58.7487L286.276 58.7535L287.146 59.248ZM278.41 67.984L277.915 67.1148L278.41 67.984ZM274.378 56.944L275.085 57.6512L275.094 57.6416L274.378 56.944ZM274.378 35.536L273.661 36.2337L273.67 36.2431L274.378 35.536ZM257.673 35.536L256.957 34.8384L256.957 34.8386L257.673 35.536ZM257.673 56.944L256.948 57.6317L256.957 57.6416L256.966 57.6511L257.673 56.944ZM266.026 70.152C261.577 70.152 257.59 69.1344 254.04 67.1148L253.051 68.8532C256.926 71.0576 261.258 72.152 266.026 72.152V70.152ZM254.047 67.1186C250.551 65.0951 247.763 62.3084 245.672 58.7423L243.947 59.7537C246.208 63.6116 249.244 66.6489 253.044 68.8494L254.047 67.1186ZM245.682 58.7598C243.665 55.1527 242.641 50.9732 242.641 46.192H240.641C240.641 51.2668 241.73 55.7913 243.937 59.7362L245.682 58.7598ZM242.641 46.192C242.641 41.4155 243.695 37.2752 245.768 33.7377L244.043 32.7263C241.764 36.6128 240.641 41.1125 240.641 46.192H242.641ZM245.772 33.7313C247.863 30.1019 250.652 27.2865 254.143 25.2654L253.14 23.5346C249.335 25.7375 246.3 28.8101 244.039 32.7327L245.772 33.7313ZM254.136 25.2692C257.685 23.2496 261.673 22.232 266.121 22.232V20.232C261.354 20.232 257.022 21.3264 253.147 23.5308L254.136 25.2692ZM266.121 22.232C270.504 22.232 274.425 23.2484 277.908 25.2654L278.911 23.5346C275.098 21.3276 270.827 20.232 266.121 20.232V22.232ZM277.915 25.2692C281.466 27.2898 284.249 30.1011 286.273 33.7202L288.018 32.7438C285.818 28.8109 282.777 25.7342 278.904 23.5308L277.915 25.2692ZM286.283 33.7377C288.356 37.2752 289.41 41.4155 289.41 46.192H291.41C291.41 41.1125 290.287 36.6128 288.008 32.7263L286.283 33.7377ZM289.41 46.192C289.41 50.9681 288.357 55.1436 286.279 58.7487L288.012 59.7473C290.286 55.8004 291.41 51.2719 291.41 46.192H289.41ZM286.276 58.7535C284.253 62.3092 281.471 65.0918 277.915 67.1148L278.904 68.8532C282.772 66.6522 285.814 63.6108 288.015 59.7425L286.276 58.7535ZM277.915 67.1148C274.363 69.1356 270.408 70.152 266.026 70.152V72.152C270.731 72.152 275.032 71.0564 278.904 68.8532L277.915 67.1148ZM266.026 61.496C269.504 61.496 272.539 60.1969 275.085 57.6511L273.67 56.2369C271.48 58.4271 268.947 59.496 266.026 59.496V61.496ZM275.094 57.6416C277.705 54.9596 278.93 51.0844 278.93 46.192H276.93C276.93 50.7716 275.786 54.0644 273.661 56.2464L275.094 57.6416ZM278.93 46.192C278.93 41.3019 277.706 37.4506 275.085 34.8289L273.67 36.2431C275.785 38.3574 276.93 41.6101 276.93 46.192H278.93ZM275.094 34.8384C272.555 32.2307 269.551 30.888 266.121 30.888V32.888C268.964 32.888 271.464 33.9773 273.661 36.2336L275.094 34.8384ZM266.121 30.888C262.576 30.888 259.505 32.2217 256.957 34.8384L258.39 36.2336C260.578 33.9863 263.139 32.888 266.121 32.888V30.888ZM256.957 34.8386C254.405 37.4611 253.217 41.3086 253.217 46.192H255.217C255.217 41.6034 256.334 38.3468 258.39 36.2334L256.957 34.8386ZM253.217 46.192C253.217 51.0777 254.406 54.9491 256.948 57.6317L258.399 56.2563C256.333 54.0749 255.217 50.7783 255.217 46.192H253.217ZM256.966 57.6511C259.512 60.1969 262.547 61.496 266.026 61.496V59.496C263.104 59.496 260.571 58.4271 258.381 56.2369L256.966 57.6511ZM301.396 70H300.396V71H301.396V70ZM301.396 22.384V21.384H300.396V22.384H301.396ZM312.34 22.384L313.332 22.256L313.22 21.384H312.34V22.384ZM313.492 31.312L312.5 31.44L312.886 34.4292L314.364 31.8023L313.492 31.312ZM320.5 24.016L321.02 24.8702L321.025 24.867L320.5 24.016ZM331.06 21.232H332.06V20.232H331.06V21.232ZM331.06 34.192V35.192H332.06V34.192H331.06ZM320.404 35.44L320.771 36.3704L320.404 35.44ZM315.412 39.76L314.552 39.2495L314.546 39.2595L314.541 39.2697L315.412 39.76ZM313.684 70V71H314.684V70H313.684ZM302.396 70V22.384H300.396V70H302.396ZM301.396 23.384H312.34V21.384H301.396V23.384ZM311.348 22.512L312.5 31.44L314.484 31.184L313.332 22.256L311.348 22.512ZM314.364 31.8023C316.01 28.8762 318.226 26.5709 321.02 24.8702L319.98 23.1618C316.886 25.045 314.431 27.6038 312.621 30.8217L314.364 31.8023ZM321.025 24.867C323.854 23.1215 327.187 22.232 331.06 22.232V20.232C326.869 20.232 323.162 21.1984 319.975 23.165L321.025 24.867ZM330.06 21.232V34.192H332.06V21.232H330.06ZM331.06 33.192H327.604V35.192H331.06V33.192ZM327.604 33.192C324.813 33.192 322.286 33.624 320.038 34.5096L320.771 36.3704C322.747 35.592 325.019 35.192 327.604 35.192V33.192ZM320.038 34.5096C317.709 35.4271 315.876 37.0207 314.552 39.2495L316.272 40.2705C317.381 38.4033 318.876 37.1169 320.771 36.3704L320.038 34.5096ZM314.541 39.2697C313.27 41.5281 312.684 44.5707 312.684 48.304H314.684C314.684 44.7413 315.25 42.0879 316.284 40.2503L314.541 39.2697ZM312.684 48.304V70H314.684V48.304H312.684ZM313.684 69H301.396V71H313.684V69ZM348.675 66.352L349.303 65.5744L348.675 66.352ZM344.163 32.656H345.163V31.656H344.163V32.656ZM336.003 32.656H335.003V33.656H336.003V32.656ZM336.003 22.384V21.384H335.003V22.384H336.003ZM344.163 22.384V23.384H345.056L345.156 22.4961L344.163 22.384ZM345.603 9.616V8.616H344.709L344.609 9.50393L345.603 9.616ZM356.451 9.616H357.451V8.616H356.451V9.616ZM356.451 22.384H355.451V23.384H356.451V22.384ZM369.315 22.384H370.315V21.384H369.315V22.384ZM369.315 32.656V33.656H370.315V32.656H369.315ZM356.451 32.656V31.656H355.451V32.656H356.451ZM357.891 58.288L357.208 59.0191L357.234 59.0425L357.26 59.0641L357.891 58.288ZM369.027 59.536H370.027V58.536H369.027V59.536ZM369.027 70V71H370.027V70H369.027ZM360.675 69C355.844 69 352.087 67.8252 349.303 65.5744L348.046 67.1296C351.278 69.7428 355.521 71 360.675 71V69ZM349.303 65.5744C346.642 63.4227 345.163 59.4797 345.163 53.392H343.163C343.163 59.7203 344.691 64.4173 348.046 67.1296L349.303 65.5744ZM345.163 53.392V32.656H343.163V53.392H345.163ZM344.163 31.656H336.003V33.656H344.163V31.656ZM337.003 32.656V22.384H335.003V32.656H337.003ZM336.003 23.384H344.163V21.384H336.003V23.384ZM345.156 22.4961L346.596 9.72807L344.609 9.50393L343.169 22.2719L345.156 22.4961ZM345.603 10.616H356.451V8.616H345.603V10.616ZM355.451 9.616V22.384H357.451V9.616H355.451ZM356.451 23.384H369.315V21.384H356.451V23.384ZM368.315 22.384V32.656H370.315V22.384H368.315ZM369.315 31.656H356.451V33.656H369.315V31.656ZM355.451 32.656V53.488H357.451V32.656H355.451ZM355.451 53.488C355.451 55.8739 355.937 57.8327 357.208 59.0191L358.573 57.5569C357.924 56.9513 357.451 55.7101 357.451 53.488H355.451ZM357.26 59.0641C358.56 60.1206 360.583 60.536 363.075 60.536V58.536C360.702 58.536 359.269 58.1194 358.521 57.5119L357.26 59.0641ZM363.075 60.536H369.027V58.536H363.075V60.536ZM368.027 59.536V70H370.027V59.536H368.027ZM369.027 69H360.675V71H369.027V69ZM397.529 86.224L397.989 85.336L397.98 85.3317L397.529 86.224ZM385.145 74.704L386.006 74.196L386.003 74.1911L385.145 74.704ZM384.473 37.36L385.398 37.7398L384.473 37.36ZM394.937 21.52L395.644 22.2271L394.937 21.52ZM410.873 10.96L411.253 11.8851L410.873 10.96ZM450.041 11.44L449.577 12.3258L449.583 12.3291L449.59 12.3323L450.041 11.44ZM465.497 51.568L464.534 51.2977L464.531 51.3093L465.497 51.568ZM461.177 61.264L460.345 60.7093L460.342 60.7137L461.177 61.264ZM454.169 67.984L453.66 67.123L453.652 67.1283L454.169 67.984ZM436.697 68.272L436.101 69.0751L436.697 68.272ZM432.953 62.224L433.934 62.0279L433.478 59.75L432.137 61.6465L432.953 62.224ZM425.753 68.464L426.208 69.3545L426.216 69.3506L425.753 68.464ZM405.113 66.352L404.374 67.0263L404.382 67.0343L405.113 66.352ZM402.713 44.464L403.66 44.7859L403.662 44.7802L402.713 44.464ZM407.321 35.824L406.54 35.1993L406.538 35.2018L407.321 35.824ZM414.521 29.776L414.058 28.8897L414.049 28.8942L414.521 29.776ZM435.449 34.384L434.523 34.7621L435.83 37.9613L436.434 34.5587L435.449 34.384ZM436.505 28.432V27.432H435.667L435.52 28.2573L436.505 28.432ZM446.585 28.432L447.57 28.6047L447.776 27.432H446.585V28.432ZM442.073 54.16L441.088 53.9873L441.086 53.9976L441.085 54.0079L442.073 54.16ZM442.265 60.208L441.316 60.5242L441.324 60.5485L441.334 60.5724L442.265 60.208ZM451.193 60.496L451.883 61.2201L451.883 61.2194L451.193 60.496ZM454.649 55.312L453.734 54.9084L453.731 54.9149L453.728 54.9214L454.649 55.312ZM456.761 48.304L455.78 48.1079L455.778 48.1176L455.777 48.1273L456.761 48.304ZM450.137 22.384L449.459 23.1192L449.464 23.1239L450.137 22.384ZM413.849 18.736L414.246 19.6539L414.252 19.6513L413.849 18.736ZM401.369 27.376L400.65 26.6814L400.643 26.6879L401.369 27.376ZM393.113 40.336L392.185 39.9625L392.183 39.9688L393.113 40.336ZM397.529 75.088L398.212 74.3572L398.206 74.3525L397.529 75.088ZM426.233 81.04L426.037 80.0594L426.033 80.0603L426.233 81.04ZM434.105 78.544L435.074 78.2987L434.78 77.1335L433.688 77.6353L434.105 78.544ZM436.121 86.512L436.513 87.4322L437.3 87.0969L437.09 86.2667L436.121 86.512ZM426.617 59.728L427.172 60.5601L426.617 59.728ZM431.321 54.544L432.194 55.0319L432.2 55.0211L431.321 54.544ZM433.337 47.056L432.339 46.9909L432.339 47.0002L432.338 47.0095L433.337 47.056ZM431.417 39.568L430.593 40.1345L430.599 40.1431L430.605 40.1516L431.417 39.568ZM413.465 44.752L414.374 45.1695L414.378 45.1604L413.465 44.752ZM413.945 59.152L413.17 59.7837L413.183 59.7994L413.196 59.8146L413.945 59.152ZM416.153 89.352C409.179 89.352 403.135 88.0018 397.989 85.3361L397.069 87.1119C402.547 89.9502 408.919 91.352 416.153 91.352V89.352ZM397.98 85.3317C392.834 82.7275 388.851 79.0187 386.006 74.196L384.284 75.212C387.327 80.3733 391.6 84.3445 397.077 87.1163L397.98 85.3317ZM386.003 74.1911C383.168 69.4443 381.729 63.7725 381.729 57.136H379.729C379.729 64.0675 381.234 70.1077 384.287 75.2169L386.003 74.1911ZM381.729 57.136C381.729 50.1516 382.955 43.6898 385.398 37.7398L383.548 36.9802C380.999 43.1902 379.729 49.9124 379.729 57.136H381.729ZM385.398 37.7398C387.846 31.7776 391.261 26.61 395.644 22.2271L394.23 20.8129C389.653 25.39 386.092 30.7824 383.548 36.9802L385.398 37.7398ZM395.644 22.2271C400.092 17.7789 405.292 14.332 411.253 11.8851L410.493 10.0349C404.294 12.58 398.87 16.1731 394.23 20.8129L395.644 22.2271ZM411.253 11.8851C417.201 9.44329 423.726 8.216 430.841 8.216V6.216C423.492 6.216 416.705 7.4847 410.493 10.0349L411.253 11.8851ZM430.841 8.216C438.139 8.216 444.373 9.59977 449.577 12.3258L450.505 10.5542C444.957 7.64822 438.391 6.216 430.841 6.216V8.216ZM449.59 12.3323C454.868 15.0027 458.914 18.7454 461.756 23.564L463.478 22.548C460.432 17.3826 456.094 13.3813 450.492 10.5477L449.59 12.3323ZM461.756 23.564C464.598 28.3833 466.033 33.9636 466.033 40.336H468.033C468.033 33.6524 466.524 27.7127 463.478 22.548L461.756 23.564ZM466.033 40.336C466.033 44.0859 465.533 47.7389 464.534 51.2977L466.46 51.8383C467.509 48.1011 468.033 44.2661 468.033 40.336H466.033ZM464.531 51.3093C463.597 54.7956 462.2 57.9263 460.345 60.7093L462.009 61.8187C463.994 58.8417 465.477 55.5084 466.463 51.8267L464.531 51.3093ZM460.342 60.7137C458.567 63.4068 456.341 65.5389 453.66 67.1231L454.678 68.8449C457.629 67.1011 460.075 64.7532 462.012 61.8143L460.342 60.7137ZM453.652 67.1283C451.073 68.6874 448.088 69.48 444.665 69.48V71.48C448.41 71.48 451.761 70.6086 454.686 68.8397L453.652 67.1283ZM444.665 69.48C441.478 69.48 439.054 68.7752 437.293 67.4689L436.101 69.0751C438.308 70.7128 441.196 71.48 444.665 71.48V69.48ZM437.293 67.4689C435.52 66.1535 434.4 64.36 433.934 62.0279L431.972 62.4201C432.53 65.208 433.906 67.4465 436.101 69.0751L437.293 67.4689ZM432.137 61.6465C430.375 64.1365 428.098 66.1124 425.29 67.5774L426.216 69.3506C429.296 67.7436 431.819 65.5595 433.769 62.8015L432.137 61.6465ZM425.298 67.5736C422.563 68.9714 419.616 69.672 416.441 69.672V71.672C419.922 71.672 423.183 70.9006 426.208 69.3544L425.298 67.5736ZM416.441 69.672C411.784 69.672 408.3 68.3011 405.844 65.6697L404.382 67.0343C407.302 70.1629 411.37 71.672 416.441 71.672V69.672ZM405.852 65.6777C403.371 62.9613 402.081 59.256 402.081 54.448H400.081C400.081 59.624 401.479 63.8547 404.375 67.0263L405.852 65.6777ZM402.081 54.448C402.081 51.099 402.608 47.8799 403.66 44.7859L401.766 44.1421C400.642 47.4481 400.081 50.885 400.081 54.448H402.081ZM403.662 44.7802C404.716 41.6183 406.198 38.8437 408.104 36.4462L406.538 35.2018C404.476 37.7963 402.886 40.7817 401.764 44.1478L403.662 44.7802ZM408.102 36.4487C410.07 33.989 412.366 32.0627 414.993 30.6578L414.049 28.8942C411.172 30.4333 408.668 32.539 406.54 35.1993L408.102 36.4487ZM414.984 30.6622C417.65 29.2685 420.562 28.568 423.737 28.568V26.568C420.256 26.568 417.024 27.3395 414.058 28.8898L414.984 30.6622ZM423.737 28.568C426.591 28.568 428.868 29.1131 430.626 30.1363C432.37 31.1515 433.671 32.6756 434.523 34.7621L436.375 34.0059C435.371 31.5484 433.792 29.6645 431.632 28.4077C429.486 27.1589 426.835 26.568 423.737 26.568V28.568ZM436.434 34.5587L437.49 28.6067L435.52 28.2573L434.464 34.2093L436.434 34.5587ZM436.505 29.432H446.585V27.432H436.505V29.432ZM445.6 28.2593L441.088 53.9873L443.058 54.3327L447.57 28.6047L445.6 28.2593ZM441.085 54.0079C440.689 56.5816 440.734 58.7763 441.316 60.5242L443.214 59.8918C442.772 58.5677 442.689 56.7304 443.061 54.3121L441.085 54.0079ZM441.334 60.5724C441.707 61.5269 442.357 62.2639 443.257 62.7458C444.136 63.2159 445.202 63.416 446.393 63.416V61.416C445.408 61.416 444.698 61.2481 444.201 60.9822C443.726 60.7281 443.399 60.3611 443.196 59.8436L441.334 60.5724ZM446.393 63.416C448.506 63.416 450.353 62.6772 451.883 61.2201L450.503 59.7719C449.345 60.8748 447.992 61.416 446.393 61.416V63.416ZM451.883 61.2194C453.406 59.766 454.63 57.9179 455.57 55.7025L453.728 54.9214C452.876 56.9301 451.796 58.538 450.503 59.7726L451.883 61.2194ZM455.564 55.7156C456.558 53.4624 457.284 51.0497 457.745 48.4807L455.777 48.1273C455.342 50.5503 454.66 52.8096 453.734 54.9084L455.564 55.7156ZM457.742 48.5001C458.266 45.8802 458.529 43.3185 458.529 40.816H456.529C456.529 43.1775 456.28 45.6078 455.78 48.1079L457.742 48.5001ZM458.529 40.816C458.529 32.7794 455.982 26.3466 450.81 21.6441L449.464 23.1239C454.148 27.3814 456.529 33.2366 456.529 40.816H458.529ZM450.815 21.6488C445.651 16.8874 438.533 14.568 429.593 14.568V16.568C438.189 16.568 444.767 18.7926 449.459 23.1192L450.815 21.6488ZM429.593 14.568C423.77 14.568 418.384 15.6482 413.446 17.8207L414.252 19.6513C418.914 17.5998 424.024 16.568 429.593 16.568V14.568ZM413.452 17.8181C408.595 19.9185 404.325 22.8744 400.65 26.6814L402.088 28.0706C405.581 24.4536 409.631 21.6495 414.246 19.6539L413.452 17.8181ZM400.643 26.6879C397.034 30.4947 394.214 34.9225 392.185 39.9625L394.041 40.7095C395.98 35.8935 398.664 31.6813 402.095 28.0641L400.643 26.6879ZM392.183 39.9688C390.213 44.9585 389.233 50.3321 389.233 56.08H391.233C391.233 50.5639 392.173 45.4415 394.043 40.7032L392.183 39.9688ZM389.233 56.08C389.233 64.4798 391.735 71.1106 396.852 75.8235L398.206 74.3525C393.595 70.1054 391.233 64.0642 391.233 56.08H389.233ZM396.846 75.8187C401.944 80.5813 408.935 82.904 417.689 82.904V80.904C409.291 80.904 402.842 78.6827 398.212 74.3573L396.846 75.8187ZM417.689 82.904C420.636 82.904 423.551 82.6092 426.433 82.0197L426.033 80.0603C423.283 80.6228 420.502 80.904 417.689 80.904V82.904ZM426.429 82.0206C429.376 81.4312 432.075 80.577 434.522 79.4527L433.688 77.6353C431.399 78.687 428.85 79.4968 426.037 80.0594L426.429 82.0206ZM433.136 78.7893L435.152 86.7573L437.09 86.2667L435.074 78.2987L433.136 78.7893ZM435.729 85.5918C429.851 88.0934 423.33 89.352 416.153 89.352V91.352C423.568 91.352 430.359 90.0506 436.513 87.4322L435.729 85.5918ZM420.281 62.648C422.783 62.648 425.088 61.9494 427.172 60.5601L426.062 58.896C424.306 60.0666 422.387 60.648 420.281 60.648V62.648ZM427.172 60.5601C429.234 59.1852 430.907 57.3348 432.194 55.0318L430.448 54.0562C429.303 56.1052 427.84 57.7108 426.062 58.896L427.172 60.5601ZM432.2 55.0211C433.494 52.6379 434.201 49.9928 434.336 47.1025L432.338 47.0095C432.217 49.6232 431.58 51.9701 430.442 54.0669L432.2 55.0211ZM434.335 47.1211C434.539 43.987 433.859 41.2515 432.229 38.9844L430.605 40.1516C431.919 41.9805 432.519 44.237 432.339 46.9909L434.335 47.1211ZM432.241 39.0015C430.602 36.6169 428.01 35.496 424.697 35.496V37.496C427.528 37.496 429.416 38.4231 430.593 40.1345L432.241 39.0015ZM424.697 35.496C421.92 35.496 419.457 36.3351 417.352 38.0191L418.602 39.5809C420.337 38.1929 422.354 37.496 424.697 37.496V35.496ZM417.352 38.0191C415.298 39.6628 413.7 41.7787 412.552 44.3436L414.378 45.1604C415.406 42.8613 416.816 41.0092 418.602 39.5809L417.352 38.0191ZM412.556 44.3345C411.405 46.8408 410.833 49.5441 410.833 52.432H412.833C412.833 49.8159 413.349 47.3992 414.374 45.1695L412.556 44.3345ZM410.833 52.432C410.833 55.3585 411.585 57.8384 413.17 59.7837L414.72 58.5203C413.489 57.0096 412.833 55.0095 412.833 52.432H410.833ZM413.196 59.8146C414.902 61.7429 417.316 62.648 420.281 62.648V60.648C417.742 60.648 415.932 59.8891 414.694 58.4894L413.196 59.8146ZM494.093 55.024L494.343 54.0557L493.79 53.913L493.386 54.3169L494.093 55.024ZM490.541 58.576L489.834 57.8689L488.876 58.8263L490.073 59.4598L490.541 58.576ZM494.957 60.016L494.754 60.9953L494.957 60.016ZM503.981 61.168L503.889 62.1638L503.89 62.1639L503.981 61.168ZM517.805 65.68L517.16 66.444L517.805 65.68ZM519.821 83.728L518.969 83.2039L518.964 83.2135L519.821 83.728ZM512.717 89.872L512.284 88.9705L512.277 88.974L512.27 88.9776L512.717 89.872ZM484.013 88.432L484.537 87.5803L484.527 87.5745L484.013 88.432ZM484.013 65.968L484.615 66.7665L485.964 65.7494L484.423 65.0561L484.013 65.968ZM480.653 64.144L480.072 64.9577L480.085 64.9671L480.098 64.9761L480.653 64.144ZM478.253 62.128H477.253V62.5422L477.546 62.8351L478.253 62.128ZM478.253 59.92L477.526 59.2329L477.253 59.522V59.92H478.253ZM486.605 51.088L487.332 51.7751L488.044 51.0217L487.265 50.337L486.605 51.088ZM483.341 29.776L482.487 29.2554L482.483 29.2631L482.478 29.2708L483.341 29.776ZM490.061 23.536L489.59 22.6536L490.061 23.536ZM508.013 22.384L507.697 23.3327L507.851 23.384H508.013V22.384ZM526.061 22.384H527.061V21.384H526.061V22.384ZM526.061 29.872L526.131 30.8695L527.061 30.8039V29.872H526.061ZM517.901 30.448L517.831 29.4505L516.303 29.5583L517.016 30.9137L517.901 30.448ZM510.797 53.488L510.334 52.6014L510.326 52.6056L510.797 53.488ZM506.669 44.368L506.041 43.5901L506.033 43.5961L506.026 43.6023L506.669 44.368ZM506.669 32.848L506.026 33.6137L506.033 33.6199L506.041 33.6259L506.669 32.848ZM494.189 32.848L493.546 32.0823L494.189 32.848ZM494.189 44.368L494.832 43.6023L494.189 44.368ZM492.269 81.136L492.746 80.2571L492.737 80.2522L492.269 81.136ZM507.917 81.04L507.382 80.1952L507.372 80.2015L507.362 80.2079L507.917 81.04ZM508.877 71.728L508.189 72.4539L508.199 72.4627L508.208 72.4713L508.877 71.728ZM501.485 69.616L501.412 70.6133L501.416 70.6136L501.485 69.616ZM494.189 68.752L494.358 67.7664L494.013 67.7072L493.706 67.8764L494.189 68.752ZM490.157 72.112L489.332 71.5473L489.321 71.5625L489.312 71.578L490.157 72.112ZM500.525 54.792C498.295 54.792 496.236 54.5442 494.343 54.0557L493.843 55.9923C495.918 56.5278 498.147 56.792 500.525 56.792V54.792ZM493.386 54.3169L489.834 57.8689L491.248 59.2831L494.8 55.7311L493.386 54.3169ZM490.073 59.4598C491.277 60.097 492.85 60.6012 494.754 60.9953L495.16 59.0367C493.352 58.6628 491.981 58.207 491.009 57.6922L490.073 59.4598ZM494.754 60.9953C496.669 61.3914 499.725 61.7794 503.889 62.1638L504.073 60.1722C499.917 59.7886 496.957 59.4085 495.16 59.0367L494.754 60.9953ZM503.89 62.1639C510.148 62.7328 514.511 64.2076 517.16 66.444L518.45 64.916C515.339 62.2884 510.486 60.7552 504.072 60.1721L503.89 62.1639ZM517.16 66.444C519.782 68.6586 521.125 71.7212 521.125 75.76H523.125C523.125 71.2228 521.588 67.5654 518.45 64.916L517.16 66.444ZM521.125 75.76C521.125 78.3832 520.412 80.8588 518.969 83.2039L520.673 84.2521C522.302 81.6052 523.125 78.7688 523.125 75.76H521.125ZM518.964 83.2135C517.546 85.5762 515.342 87.5029 512.284 88.9705L513.15 90.7735C516.492 89.1691 519.024 86.9998 520.678 84.2425L518.964 83.2135ZM512.27 88.9776C509.252 90.4863 505.323 91.272 500.429 91.272V93.272C505.519 93.272 509.782 92.4577 513.164 90.7664L512.27 88.9776ZM500.429 91.272C493.761 91.272 488.49 90.0126 484.537 87.5803L483.489 89.2837C487.856 91.9714 493.529 93.272 500.429 93.272V91.272ZM484.527 87.5745C480.684 85.2684 478.773 81.8268 478.773 77.104H476.773C476.773 82.4932 479.022 86.6036 483.499 89.2895L484.527 87.5745ZM478.773 77.104C478.773 73.1984 480.645 69.759 484.615 66.7665L483.411 65.1695C479.061 68.449 476.773 72.4336 476.773 77.104H478.773ZM484.423 65.0561C483.183 64.498 482.113 63.9157 481.208 63.312L480.098 64.9761C481.113 65.6523 482.283 66.286 483.603 66.8799L484.423 65.0561ZM481.234 63.3303C480.378 62.719 479.621 62.0821 478.96 61.4209L477.546 62.8351C478.293 63.5819 479.136 64.289 480.072 64.9577L481.234 63.3303ZM479.253 62.128V59.92H477.253V62.128H479.253ZM478.98 60.6071L487.332 51.7751L485.878 50.4009L477.526 59.2329L478.98 60.6071ZM487.265 50.337C483.778 47.2705 482.037 43.3562 482.037 38.512H480.037C480.037 43.9078 482.008 48.3775 485.945 51.839L487.265 50.337ZM482.037 38.512C482.037 35.4799 482.762 32.7438 484.204 30.2812L482.478 29.2708C480.848 32.0562 480.037 35.1441 480.037 38.512H482.037ZM484.195 30.2966C485.696 27.8348 487.799 25.8756 490.532 24.4184L489.59 22.6536C486.563 24.2684 484.186 26.4692 482.487 29.2554L484.195 30.2966ZM490.532 24.4184C493.234 22.9768 496.552 22.232 500.525 22.232V20.232C496.306 20.232 492.648 21.0232 489.59 22.6536L490.532 24.4184ZM500.525 22.232C503.117 22.232 505.505 22.6021 507.697 23.3327L508.329 21.4353C505.913 20.6299 503.309 20.232 500.525 20.232V22.232ZM508.013 23.384H526.061V21.384H508.013V23.384ZM525.061 22.384V29.872H527.061V22.384H525.061ZM525.991 28.8745L517.831 29.4505L517.971 31.4455L526.131 30.8695L525.991 28.8745ZM517.016 30.9137C518.215 33.192 518.821 35.7184 518.821 38.512H520.821C520.821 35.4176 520.147 32.568 518.786 29.9823L517.016 30.9137ZM518.821 38.512C518.821 41.5441 518.096 44.2802 516.654 46.7428L518.38 47.7532C520.01 44.9678 520.821 41.8799 520.821 38.512H518.821ZM516.654 46.7428C515.222 49.1897 513.128 51.1441 510.334 52.6014L511.26 54.3746C514.354 52.7599 516.74 50.5543 518.38 47.7532L516.654 46.7428ZM510.326 52.6056C507.619 54.0494 504.364 54.792 500.525 54.792V56.792C504.622 56.792 508.215 55.9986 511.268 54.3704L510.326 52.6056ZM500.525 47.384C503.208 47.384 505.499 46.6572 507.312 45.1337L506.026 43.6023C504.639 44.7668 502.834 45.384 500.525 45.384V47.384ZM507.297 45.1459C509.237 43.5793 510.165 41.3497 510.165 38.608H508.165C508.165 40.8583 507.429 42.4687 506.041 43.5901L507.297 45.1459ZM510.165 38.608C510.165 35.8663 509.237 33.6367 507.297 32.0701L506.041 33.6259C507.429 34.7473 508.165 36.3577 508.165 38.608H510.165ZM507.312 32.0823C505.499 30.5588 503.208 29.832 500.525 29.832V31.832C502.834 31.832 504.639 32.4492 506.026 33.6137L507.312 32.0823ZM500.525 29.832C497.728 29.832 495.368 30.5514 493.546 32.0823L494.832 33.6137C496.21 32.4566 498.074 31.832 500.525 31.832V29.832ZM493.546 32.0823C491.675 33.6536 490.789 35.88 490.789 38.608H492.789C492.789 36.344 493.503 34.7304 494.832 33.6137L493.546 32.0823ZM490.789 38.608C490.789 41.336 491.675 43.5624 493.546 45.1337L494.832 43.6023C493.503 42.4856 492.789 40.872 492.789 38.608H490.789ZM493.546 45.1337C495.368 46.6646 497.728 47.384 500.525 47.384V45.384C498.074 45.384 496.21 44.7594 494.832 43.6023L493.546 45.1337ZM488.005 75.856C488.005 77.1983 488.315 78.418 488.97 79.4778C489.624 80.5355 490.586 81.3765 491.801 82.0198L492.737 80.2522C491.776 79.7435 491.106 79.1285 490.672 78.4262C490.239 77.726 490.005 76.8817 490.005 75.856H488.005ZM491.792 82.0149C494.211 83.3282 497.104 83.96 500.429 83.96V81.96C497.354 81.96 494.807 81.3758 492.746 80.2571L491.792 82.0149ZM500.429 83.96C503.634 83.96 506.341 83.2924 508.472 81.872L507.362 80.2079C505.653 81.3476 503.368 81.96 500.429 81.96V83.96ZM508.452 81.8848C510.635 80.5022 511.797 78.5328 511.797 76.048H509.797C509.797 77.7872 509.039 79.1458 507.382 80.1952L508.452 81.8848ZM511.797 76.048C511.797 74.0376 511.038 72.3271 509.546 70.9847L508.208 72.4713C509.276 73.4329 509.797 74.6024 509.797 76.048H511.797ZM509.565 71.002C508.794 70.2722 507.704 69.7493 506.392 69.3745C505.07 68.9968 503.451 68.7492 501.554 68.6184L501.416 70.6136C503.231 70.7388 504.7 70.9712 505.842 71.2975C506.994 71.6267 507.744 72.0318 508.189 72.4539L509.565 71.002ZM501.558 68.6187C498.961 68.4287 496.562 68.1442 494.358 67.7664L494.02 69.7376C496.296 70.1278 498.761 70.4193 501.412 70.6133L501.558 68.6187ZM493.706 67.8764C491.769 68.9451 490.282 70.1584 489.332 71.5473L490.982 72.6767C491.696 71.6336 492.897 70.6069 494.672 69.6276L493.706 67.8764ZM489.312 71.578C488.455 72.9335 488.005 74.3643 488.005 75.856H490.005C490.005 74.7877 490.323 73.7225 491.003 72.646L489.312 71.578ZM543.514 67.984L543.013 68.8494L543.02 68.8532L543.514 67.984ZM534.778 59.248L533.906 59.7362L533.91 59.745L533.916 59.7537L534.778 59.248ZM534.874 33.232L535.737 33.7377L535.741 33.7313L534.874 33.232ZM543.61 24.4L543.116 23.5308L543.109 23.5346L543.61 24.4ZM568.378 24.4L567.877 25.2654L567.884 25.2692L568.378 24.4ZM577.114 33.232L576.242 33.7202L576.246 33.729L576.252 33.7377L577.114 33.232ZM577.114 59.248L576.248 58.7487L576.245 58.7535L577.114 59.248ZM568.378 67.984L567.884 67.1148L568.378 67.984ZM564.346 56.944L565.053 57.6512L565.063 57.6416L564.346 56.944ZM564.346 35.536L563.63 36.2337L563.639 36.2431L564.346 35.536ZM547.642 35.536L546.926 34.8384L546.926 34.8386L547.642 35.536ZM547.642 56.944L546.916 57.6317L546.926 57.6416L546.935 57.6511L547.642 56.944ZM555.994 70.152C551.546 70.152 547.558 69.1344 544.009 67.1148L543.02 68.8532C546.894 71.0576 551.227 72.152 555.994 72.152V70.152ZM544.015 67.1186C540.52 65.0951 537.731 62.3084 535.641 58.7423L533.916 59.7537C536.177 63.6116 539.212 66.6489 543.013 68.8494L544.015 67.1186ZM535.651 58.7598C533.633 55.1527 532.61 50.9732 532.61 46.192H530.61C530.61 51.2668 531.699 55.7913 533.906 59.7362L535.651 58.7598ZM532.61 46.192C532.61 41.4155 533.663 37.2752 535.737 33.7377L534.012 32.7263C531.733 36.6128 530.61 41.1125 530.61 46.192H532.61ZM535.741 33.7313C537.832 30.1019 540.62 27.2865 544.111 25.2654L543.109 23.5346C539.304 25.7375 536.268 28.8101 534.008 32.7327L535.741 33.7313ZM544.105 25.2692C547.654 23.2496 551.642 22.232 556.09 22.232V20.232C551.323 20.232 546.99 21.3264 543.116 23.5308L544.105 25.2692ZM556.09 22.232C560.472 22.232 564.393 23.2484 567.877 25.2654L568.879 23.5346C565.067 21.3276 560.796 20.232 556.09 20.232V22.232ZM567.884 25.2692C571.435 27.2898 574.217 30.1011 576.242 33.7202L577.987 32.7438C575.787 28.8109 572.745 25.7342 568.873 23.5308L567.884 25.2692ZM576.252 33.7377C578.325 37.2752 579.378 41.4155 579.378 46.192H581.378C581.378 41.1125 580.255 36.6128 577.977 32.7263L576.252 33.7377ZM579.378 46.192C579.378 50.9681 578.325 55.1436 576.248 58.7487L577.981 59.7473C580.255 55.8004 581.378 51.2719 581.378 46.192H579.378ZM576.245 58.7535C574.222 62.3092 571.439 65.0918 567.884 67.1148L568.873 68.8532C572.741 66.6522 575.782 63.6108 577.983 59.7425L576.245 58.7535ZM567.884 67.1148C564.332 69.1356 560.376 70.152 555.994 70.152V72.152C560.7 72.152 565 71.0564 568.873 68.8532L567.884 67.1148ZM555.994 61.496C559.473 61.496 562.508 60.1969 565.053 57.6511L563.639 56.2369C561.449 58.4271 558.916 59.496 555.994 59.496V61.496ZM565.063 57.6416C567.674 54.9596 568.898 51.0844 568.898 46.192H566.898C566.898 50.7716 565.754 54.0644 563.63 56.2464L565.063 57.6416ZM568.898 46.192C568.898 41.3019 567.675 37.4506 565.053 34.8289L563.639 36.2431C565.753 38.3574 566.898 41.6101 566.898 46.192H568.898ZM565.063 34.8384C562.524 32.2307 559.52 30.888 556.09 30.888V32.888C558.933 32.888 561.433 33.9773 563.63 36.2336L565.063 34.8384ZM556.09 30.888C552.545 30.888 549.474 32.2217 546.926 34.8384L548.359 36.2336C550.547 33.9863 553.108 32.888 556.09 32.888V30.888ZM546.926 34.8386C544.374 37.4611 543.186 41.3086 543.186 46.192H545.186C545.186 41.6034 546.303 38.3468 548.359 36.2334L546.926 34.8386ZM543.186 46.192C543.186 51.0777 544.375 54.9491 546.916 57.6317L548.368 56.2563C546.302 54.0749 545.186 50.7783 545.186 46.192H543.186ZM546.935 57.6511C549.481 60.1969 552.516 61.496 555.994 61.496V59.496C553.073 59.496 550.54 58.4271 548.349 56.2369L546.935 57.6511ZM601.253 67.888L601.779 67.0374L601.253 67.888ZM592.901 58.96L592.022 59.4368L592.901 58.96ZM592.901 33.328L593.777 33.8111L593.78 33.8048L592.901 33.328ZM601.253 24.496L601.768 25.3536L601.779 25.3466L601.253 24.496ZM622.661 23.248L623.108 22.3536V22.3536L622.661 23.248ZM629.189 28.912L628.364 29.4767L630.189 32.1444V28.912H629.189ZM629.189 0.879997V-0.120003H628.189V0.879997H629.189ZM641.477 0.879997H642.477V-0.120003H641.477V0.879997ZM641.477 70V71H642.477V70H641.477ZM630.533 70L629.552 70.1935L629.711 71H630.533V70ZM629.189 63.184L630.17 62.9905L629.727 60.7439L628.38 62.5958L629.189 63.184ZM623.045 68.752L622.515 67.9039L622.505 67.9101L623.045 68.752ZM625.541 56.464L624.817 55.7743L624.816 55.7748L625.541 56.464ZM625.541 36.016L624.808 36.6964L624.817 36.7055L624.825 36.7143L625.541 36.016ZM606.149 35.92L606.865 36.6183L606.149 35.92ZM606.149 56.368L606.873 55.6783L606.149 56.368ZM613.253 70.152C608.943 70.152 605.128 69.1077 601.779 67.0374L600.727 68.7386C604.418 71.0203 608.603 72.152 613.253 72.152V70.152ZM601.779 67.0374C598.413 64.9567 595.748 62.112 593.78 58.4832L592.022 59.4368C594.15 63.36 597.053 66.4673 600.727 68.7386L601.779 67.0374ZM593.78 58.4832C591.82 54.8701 590.829 50.7494 590.829 46.096H588.829C588.829 51.0426 589.886 55.4978 592.022 59.4368L593.78 58.4832ZM590.829 46.096C590.829 41.4423 591.82 37.3565 593.777 33.8111L592.025 32.8449C589.885 36.7235 588.829 41.1497 588.829 46.096H590.829ZM593.78 33.8048C595.747 30.1784 598.408 27.3691 601.768 25.3535L600.739 23.6385C597.058 25.8469 594.151 28.9256 592.022 32.8512L593.78 33.8048ZM601.779 25.3466C605.128 23.2763 608.943 22.232 613.253 22.232V20.232C608.603 20.232 604.418 21.3637 600.727 23.6454L601.779 25.3466ZM613.253 22.232C616.711 22.232 619.689 22.88 622.214 24.1424L623.108 22.3536C620.257 20.928 616.963 20.232 613.253 20.232V22.232ZM622.214 24.1424C624.753 25.412 626.798 27.1878 628.364 29.4767L630.014 28.3473C628.252 25.7722 625.945 23.772 623.108 22.3536L622.214 24.1424ZM630.189 28.912V0.879997H628.189V28.912H630.189ZM629.189 1.88H641.477V-0.120003H629.189V1.88ZM640.477 0.879997V70H642.477V0.879997H640.477ZM641.477 69H630.533V71H641.477V69ZM631.514 69.8065L630.17 62.9905L628.208 63.3775L629.552 70.1935L631.514 69.8065ZM628.38 62.5958C626.93 64.5893 624.983 66.3615 622.515 67.904L623.575 69.6C626.227 67.9425 628.376 66.0027 629.998 63.7722L628.38 62.5958ZM622.505 67.9101C620.219 69.376 617.16 70.152 613.253 70.152V72.152C617.41 72.152 620.879 71.328 623.585 69.5939L622.505 67.9101ZM615.845 61.4C620.058 61.4 623.562 59.9958 626.266 57.1532L624.816 55.7748C622.528 58.1802 619.568 59.4 615.845 59.4V61.4ZM626.265 57.1537C629.024 54.2567 630.381 50.5752 630.381 46.192H628.381C628.381 50.1288 627.178 53.2953 624.817 55.7743L626.265 57.1537ZM630.381 46.192C630.381 41.8092 629.024 38.1541 626.257 35.3177L624.825 36.7143C627.178 39.1259 628.381 42.2548 628.381 46.192H630.381ZM626.274 35.3355C623.572 32.4259 620.066 30.984 615.845 30.984V32.984C619.56 32.984 622.518 34.2301 624.808 36.6964L626.274 35.3355ZM615.845 30.984C611.691 30.984 608.195 32.3913 605.433 35.2217L606.865 36.6183C609.223 34.2007 612.191 32.984 615.845 32.984V30.984ZM605.433 35.2217C602.666 38.0581 601.309 41.7132 601.309 46.096H603.309C603.309 42.1588 604.512 39.0299 606.865 36.6183L605.433 35.2217ZM601.309 46.096C601.309 50.4792 602.666 54.1607 605.425 57.0577L606.873 55.6783C604.512 53.1993 603.309 50.0328 603.309 46.096H601.309ZM605.425 57.0577C608.184 59.955 611.683 61.4 615.845 61.4V59.4C612.199 59.4 609.234 58.157 606.873 55.6783L605.425 57.0577ZM664.358 68.08L664.841 67.2044L664.358 68.08ZM655.526 33.424L654.65 32.942L654.644 32.9534L655.526 33.424ZM664.166 24.496L664.667 25.3614L664.672 25.3587L664.166 24.496ZM689.606 24.304L689.11 25.1722L689.606 24.304ZM697.958 32.752L697.083 33.2363L697.088 33.2457L697.094 33.2549L697.958 32.752ZM700.934 46.768L699.937 46.685L699.934 46.7264V46.768H700.934ZM700.838 49.168V50.168H701.764L701.835 49.2447L700.838 49.168ZM664.646 49.168V48.168H663.575L663.648 49.2368L664.646 49.168ZM668.486 57.904L667.81 58.6412L667.82 58.6503L668.486 57.904ZM683.27 59.44L683.817 60.277L683.825 60.272L683.27 59.44ZM687.11 55.024V54.024H686.472L686.203 54.6029L687.11 55.024ZM699.59 55.024L700.548 55.3095L700.931 54.024H699.59V55.024ZM695.078 63.28L694.315 62.6341L694.313 62.6359L695.078 63.28ZM687.398 69.04L686.981 68.1309L686.974 68.1343L687.398 69.04ZM669.254 33.808L669.839 34.6187L669.847 34.6134L669.854 34.608L669.254 33.808ZM664.838 41.488L663.855 41.3059L663.636 42.488H664.838V41.488ZM688.55 41.488V42.488H689.613L689.548 41.4269L688.55 41.488ZM685.094 34L685.754 33.2488L685.094 34ZM677.126 70.152C672.472 70.152 668.386 69.1605 664.841 67.2044L663.875 68.9556C667.753 71.0955 672.18 72.152 677.126 72.152V70.152ZM664.841 67.2044C661.292 65.2461 658.513 62.4986 656.491 58.9455L654.753 59.9345C656.955 63.8054 660 66.8179 663.875 68.9556L664.841 67.2044ZM656.491 58.9455C654.476 55.4041 653.454 51.2911 653.454 46.576H651.454C651.454 51.5889 652.544 56.0519 654.753 59.9345L656.491 58.9455ZM653.454 46.576C653.454 41.7902 654.447 37.5715 656.408 33.8946L654.644 32.9534C652.509 36.9565 651.454 41.5058 651.454 46.576H653.454ZM656.402 33.9059C658.43 30.2189 661.183 27.3784 664.667 25.3614L663.665 23.6306C659.853 25.8376 656.846 28.9491 654.65 32.9421L656.402 33.9059ZM664.672 25.3587C668.207 23.2861 672.379 22.232 677.222 22.232V20.232C672.081 20.232 667.549 21.3539 663.66 23.6333L664.672 25.3587ZM677.222 22.232C681.743 22.232 685.696 23.2215 689.11 25.1722L690.102 23.4358C686.348 21.2905 682.045 20.232 677.222 20.232V22.232ZM689.11 25.1722C692.536 27.1301 695.189 29.8139 697.083 33.2363L698.833 32.2677C696.759 28.5221 693.844 25.5739 690.102 23.4358L689.11 25.1722ZM697.094 33.2549C699.047 36.6117 700.03 40.3721 700.03 44.56H702.03C702.03 40.0439 700.965 35.9323 698.822 32.2491L697.094 33.2549ZM700.03 44.56C700.03 45.2338 699.999 45.942 699.937 46.685L701.931 46.851C701.997 46.058 702.03 45.2942 702.03 44.56H700.03ZM699.934 46.768C699.934 47.5083 699.903 48.2827 699.841 49.0913L701.835 49.2447C701.901 48.3893 701.934 47.5637 701.934 46.768H699.934ZM700.838 48.168H664.646V50.168H700.838V48.168ZM663.648 49.2368C663.918 53.1527 665.282 56.3237 667.81 58.6412L669.162 57.1668C667.082 55.2603 665.886 52.6073 665.644 49.0992L663.648 49.2368ZM667.82 58.6503C670.381 60.9342 673.47 62.072 677.03 62.072V60.072C673.934 60.072 671.327 59.0978 669.152 57.1577L667.82 58.6503ZM677.03 62.072C679.671 62.072 681.953 61.4956 683.817 60.277L682.723 58.603C681.258 59.5604 679.381 60.072 677.03 60.072V62.072ZM683.825 60.272C685.698 59.0235 687.104 57.4126 688.017 55.4451L686.203 54.6029C685.452 56.2194 684.299 57.5525 682.715 58.6079L683.825 60.272ZM687.11 56.024H699.59V54.024H687.11V56.024ZM698.632 54.7385C697.777 57.6087 696.341 60.239 694.315 62.6341L695.841 63.9259C698.039 61.329 699.611 58.4553 700.548 55.3095L698.632 54.7385ZM694.313 62.6359C692.366 64.9479 689.928 66.7805 686.981 68.1309L687.815 69.9491C691.012 68.4835 693.694 66.4761 695.843 63.9241L694.313 62.6359ZM686.974 68.1343C684.118 69.4712 680.842 70.152 677.126 70.152V72.152C681.09 72.152 684.662 71.4248 687.822 69.9457L686.974 68.1343ZM677.222 30.216C674.008 30.216 671.139 31.1441 668.654 33.008L669.854 34.608C671.977 33.0159 674.42 32.216 677.222 32.216V30.216ZM668.669 32.9973C666.109 34.8456 664.53 37.66 663.855 41.3059L665.821 41.6701C666.426 38.404 667.791 36.0984 669.839 34.6187L668.669 32.9973ZM664.838 42.488H688.55V40.488H664.838V42.488ZM689.548 41.4269C689.342 38.0592 688.091 35.302 685.754 33.2488L684.434 34.7512C686.321 36.41 687.374 38.6448 687.552 41.5491L689.548 41.4269ZM685.754 33.2488C683.438 31.2136 680.571 30.216 677.222 30.216V32.216C680.145 32.216 682.526 33.0743 684.434 34.7512L685.754 33.2488ZM703.572 70L702.762 69.4126L701.61 71H703.572V70ZM720.852 46.192L721.661 46.7794L722.087 46.192L721.661 45.6046L720.852 46.192ZM703.572 22.384V21.384H701.61L702.762 22.9714L703.572 22.384ZM716.724 22.384L717.537 21.8019L717.238 21.384H716.724V22.384ZM728.82 39.28L728.007 39.8621L728.823 41.0024L729.635 39.859L728.82 39.28ZM740.82 22.384V21.384H740.303L740.004 21.805L740.82 22.384ZM754.068 22.384L754.875 22.9735L756.036 21.384H754.068V22.384ZM736.692 46.192L735.884 45.6025L735.454 46.192L735.884 46.7815L736.692 46.192ZM754.068 70V71H756.036L754.875 69.4105L754.068 70ZM740.82 70L740.004 70.579L740.303 71H740.82V70ZM728.82 53.104L729.635 52.525L728.823 51.3816L728.007 52.5219L728.82 53.104ZM716.724 70V71H717.238L717.537 70.5821L716.724 70ZM704.381 70.5874L721.661 46.7794L720.042 45.6046L702.762 69.4126L704.381 70.5874ZM721.661 45.6046L704.381 21.7966L702.762 22.9714L720.042 46.7794L721.661 45.6046ZM703.572 23.384H716.724V21.384H703.572V23.384ZM715.911 22.9661L728.007 39.8621L729.633 38.6979L717.537 21.8019L715.911 22.9661ZM729.635 39.859L741.635 22.963L740.004 21.805L728.004 38.701L729.635 39.859ZM740.82 23.384H754.068V21.384H740.82V23.384ZM753.26 21.7945L735.884 45.6025L737.5 46.7815L754.875 22.9735L753.26 21.7945ZM735.884 46.7815L753.26 70.5895L754.875 69.4105L737.5 45.6025L735.884 46.7815ZM754.068 69H740.82V71H754.068V69ZM741.635 69.421L729.635 52.525L728.004 53.683L740.004 70.579L741.635 69.421ZM728.007 52.5219L715.911 69.4179L717.537 70.5821L729.633 53.6861L728.007 52.5219ZM716.724 69H703.572V71H716.724V69ZM761.608 68.56L760.901 69.2671L760.909 69.275L760.917 69.2826L761.608 68.56ZM761.608 58.288L760.917 57.5654L760.909 57.573L760.901 57.5809L761.608 58.288ZM772.648 58.288L771.941 58.9951L771.949 59.003L771.957 59.0106L772.648 58.288ZM772.648 68.56L771.957 67.8374L771.949 67.845L771.941 67.8529L772.648 68.56ZM767.176 69.672C765.166 69.672 763.566 69.0489 762.299 67.8374L760.917 69.2826C762.594 70.8871 764.707 71.672 767.176 71.672V69.672ZM762.315 67.8529C761.094 66.6317 760.496 65.1897 760.496 63.472H758.496C758.496 65.7223 759.306 67.6723 760.901 69.2671L762.315 67.8529ZM760.496 63.472C760.496 61.6808 761.101 60.2097 762.315 58.9951L760.901 57.5809C759.3 59.1823 758.496 61.1672 758.496 63.472H760.496ZM762.299 59.0106C763.566 57.7991 765.166 57.176 767.176 57.176V55.176C764.707 55.176 762.594 55.9609 760.917 57.5654L762.299 59.0106ZM767.176 57.176C769.187 57.176 770.745 57.7988 771.941 58.9951L773.355 57.5809C771.736 55.9612 769.645 55.176 767.176 55.176V57.176ZM771.957 59.0106C773.231 60.2288 773.856 61.6953 773.856 63.472H775.856C775.856 61.1527 775.01 59.1632 773.339 57.5654L771.957 59.0106ZM773.856 63.472C773.856 65.175 773.238 66.6123 771.957 67.8374L773.339 69.2826C775.003 67.6917 775.856 65.737 775.856 63.472H773.856ZM771.941 67.8529C770.745 69.0492 769.187 69.672 767.176 69.672V71.672C769.645 71.672 771.736 70.8868 773.355 69.2671L771.941 67.8529ZM786.015 12.976L785.324 13.6994L785.332 13.707L785.34 13.7145L786.015 12.976ZM786.015 2.896L786.687 3.63594L786.689 3.63448L786.015 2.896ZM797.055 2.896L796.364 3.61935L796.381 3.63537L796.399 3.6506L797.055 2.896ZM797.055 12.976L796.38 12.2375L796.372 12.245L796.364 12.2526L797.055 12.976ZM785.439 70H784.439V71H785.439V70ZM785.439 22.384V21.384H784.439V22.384H785.439ZM797.727 22.384H798.727V21.384H797.727V22.384ZM797.727 70V71H798.727V70H797.727ZM791.583 13.992C789.559 13.992 787.954 13.3921 786.689 12.2375L785.34 13.7145C787.02 15.2479 789.127 15.992 791.583 15.992V13.992ZM786.705 12.2526C785.506 11.1081 784.903 9.67869 784.903 7.888H782.903C782.903 10.1933 783.707 12.1559 785.324 13.6994L786.705 12.2526ZM784.903 7.888C784.903 6.09762 785.505 4.71077 786.687 3.63593L785.342 2.15606C783.708 3.64122 782.903 5.58238 782.903 7.888H784.903ZM786.689 3.63448C787.954 2.47988 789.559 1.88 791.583 1.88V-0.120003C789.127 -0.120003 787.02 0.624115 785.34 2.15751L786.689 3.63448ZM791.583 1.88C793.607 1.88 795.17 2.47979 796.364 3.61935L797.745 2.17264C796.123 0.624199 794.038 -0.120003 791.583 -0.120003V1.88ZM796.399 3.6506C797.64 4.73015 798.263 6.113 798.263 7.888H800.263C800.263 5.567 799.413 3.62185 797.711 2.14139L796.399 3.6506ZM798.263 7.888C798.263 9.66377 797.639 11.0888 796.38 12.2375L797.729 13.7145C799.415 12.1752 800.263 10.2082 800.263 7.888H798.263ZM796.364 12.2526C795.17 13.3922 793.607 13.992 791.583 13.992V15.992C794.038 15.992 796.123 15.2478 797.745 13.6994L796.364 12.2526ZM786.439 70V22.384H784.439V70H786.439ZM785.439 23.384H797.727V21.384H785.439V23.384ZM796.727 22.384V70H798.727V22.384H796.727ZM797.727 69H785.439V71H797.727V69ZM820.92 67.984L820.419 68.8494L820.426 68.8532L820.92 67.984ZM812.185 59.248L811.312 59.7362L811.317 59.745L811.322 59.7537L812.185 59.248ZM812.281 33.232L813.143 33.7377L813.147 33.7313L812.281 33.232ZM821.016 24.4L820.522 23.5308L820.515 23.5346L821.016 24.4ZM845.784 24.4L845.283 25.2654L845.29 25.2692L845.784 24.4ZM854.521 33.232L853.648 33.7202L853.653 33.729L853.658 33.7377L854.521 33.232ZM854.521 59.248L853.654 58.7487L853.651 58.7535L854.521 59.248ZM845.784 67.984L845.29 67.1148L845.784 67.984ZM841.753 56.944L842.46 57.6512L842.469 57.6416L841.753 56.944ZM841.753 35.536L841.036 36.2337L841.045 36.2431L841.753 35.536ZM825.049 35.536L824.332 34.8384L824.332 34.8386L825.049 35.536ZM825.049 56.944L824.323 57.6317L824.332 57.6416L824.341 57.6511L825.049 56.944ZM833.401 70.152C828.952 70.152 824.964 69.1344 821.415 67.1148L820.426 68.8532C824.3 71.0576 828.633 72.152 833.401 72.152V70.152ZM821.422 67.1186C817.926 65.0951 815.138 62.3084 813.047 58.7423L811.322 59.7537C813.583 63.6116 816.619 66.6489 820.419 68.8494L821.422 67.1186ZM813.057 58.7598C811.04 55.1527 810.016 50.9732 810.016 46.192H808.016C808.016 51.2668 809.105 55.7913 811.312 59.7362L813.057 58.7598ZM810.016 46.192C810.016 41.4155 811.07 37.2752 813.143 33.7377L811.418 32.7263C809.139 36.6128 808.016 41.1125 808.016 46.192H810.016ZM813.147 33.7313C815.238 30.1019 818.027 27.2865 821.518 25.2654L820.515 23.5346C816.71 25.7375 813.675 28.8101 811.414 32.7327L813.147 33.7313ZM821.511 25.2692C825.06 23.2496 829.048 22.232 833.497 22.232V20.232C828.729 20.232 824.396 21.3264 820.522 23.5308L821.511 25.2692ZM833.497 22.232C837.879 22.232 841.8 23.2484 845.283 25.2654L846.286 23.5346C842.473 21.3276 838.202 20.232 833.497 20.232V22.232ZM845.29 25.2692C848.841 27.2898 851.624 30.1011 853.648 33.7202L855.393 32.7438C853.193 28.8109 850.152 25.7342 846.279 23.5308L845.29 25.2692ZM853.658 33.7377C855.732 37.2752 856.784 41.4155 856.784 46.192H858.784C858.784 41.1125 857.661 36.6128 855.383 32.7263L853.658 33.7377ZM856.784 46.192C856.784 50.9681 855.732 55.1436 853.654 58.7487L855.387 59.7473C857.661 55.8004 858.784 51.2719 858.784 46.192H856.784ZM853.651 58.7535C851.628 62.3092 848.846 65.0918 845.29 67.1148L846.279 68.8532C850.147 66.6522 853.189 63.6108 855.39 59.7425L853.651 58.7535ZM845.29 67.1148C841.738 69.1356 837.783 70.152 833.401 70.152V72.152C838.106 72.152 842.407 71.0564 846.279 68.8532L845.29 67.1148ZM833.401 61.496C836.879 61.496 839.914 60.1969 842.46 57.6511L841.045 56.2369C838.855 58.4271 836.322 59.496 833.401 59.496V61.496ZM842.469 57.6416C845.08 54.9596 846.305 51.0844 846.305 46.192H844.305C844.305 50.7716 843.161 54.0644 841.036 56.2464L842.469 57.6416ZM846.305 46.192C846.305 41.3019 845.081 37.4506 842.46 34.8289L841.045 36.2431C843.16 38.3574 844.305 41.6101 844.305 46.192H846.305ZM842.469 34.8384C839.93 32.2307 836.926 30.888 833.497 30.888V32.888C836.339 32.888 838.839 33.9773 841.036 36.2336L842.469 34.8384ZM833.497 30.888C829.951 30.888 826.88 32.2217 824.332 34.8384L825.765 36.2336C827.953 33.9863 830.514 32.888 833.497 32.888V30.888ZM824.332 34.8386C821.78 37.4611 820.593 41.3086 820.593 46.192H822.593C822.593 41.6034 823.709 38.3468 825.765 36.2334L824.332 34.8386ZM820.593 46.192C820.593 51.0777 821.781 54.9491 824.323 57.6317L825.774 56.2563C823.708 54.0749 822.593 50.7783 822.593 46.192H820.593ZM824.341 57.6511C826.887 60.1969 829.922 61.496 833.401 61.496V59.496C830.479 59.496 827.946 58.4271 825.756 56.2369L824.341 57.6511Z" fill="white"/>
</svg>
