<svg width="165" height="14" viewBox="0 0 165 14" version="1.1" xmlns="http://www.w3.org/2000/svg" xmlns:xlink="http://www.w3.org/1999/xlink">
    <title>Group 4.5</title>
    <desc>Created using Figma</desc>
    <g id="Canvas" transform="translate(-4522 -1013)">
        <g id="Group 4.5">
            <g id="Rectangle 4">
                <use xlink:href="#path0_fill" transform="translate(4609 1013)" fill="#017F4E"/>
            </g>
            <g id="Rectangle 4.1">
                <use xlink:href="#path0_fill" transform="translate(4625 1013)" fill="#017F4E"/>
            </g>
            <g id="Rectangle 4.2">
                <use xlink:href="#path0_fill" transform="translate(4641 1013)" fill="#017F4E"/>
            </g>
            <g id="Rectangle 4.3">
                <use xlink:href="#path0_fill" transform="translate(4657 1013)" fill="#017F4E"/>
            </g>
            <g id="Rectangle 4.4">
                <use xlink:href="#path0_fill" transform="translate(4673 1013)" fill="#017F4E"/>
            </g>
            <g id="Star">
                <use xlink:href="#path1_fill" transform="translate(4611 1015)" fill="#FFFFFF"/>
            </g>
            <g id="Star">
                <use xlink:href="#path1_fill" transform="translate(4627 1015)" fill="#FFFFFF"/>
            </g>
            <g id="Star">
                <use xlink:href="#path1_fill" transform="translate(4643 1015)" fill="#FFFFFF"/>
            </g>
            <g id="Star">
                <use xlink:href="#path1_fill" transform="translate(4659 1015)" fill="#FFFFFF"/>
            </g>
            <g id="Star">
                <use xlink:href="#path1_fill" transform="translate(4675 1015)" fill="#FFFFFF"/>
            </g>
            <g id="Trustpilot">
                <use xlink:href="#path2_fill" transform="translate(4522 1011)" fill="#FFFFFF"/>
            </g>
        </g>
    </g>
    <defs>
        <path id="path0_fill" d="M 0 2C 0 0.895431 0.895431 0 2 0L 12 0C 13.1046 0 14 0.895431 14 2L 14 12C 14 13.1046 13.1046 14 12 14L 2 14C 0.895431 14 0 13.1046 0 12L 0 2Z"/>
        <path id="path1_fill" d="M 5 0L 6.12257 3.45492L 9.75528 3.45492L 6.81636 5.59017L 7.93893 9.04508L 5 6.90983L 2.06107 9.04508L 3.18364 5.59017L 0.244717 3.45492L 3.87743 3.45492L 5 0Z"/>
        <path id="path2_fill" d="M 8.064 5.11L 4.816 5.11L 4.816 14L 3.465 14L 3.465 5.11L 0.21 5.11L 0.21 3.969L 8.064 3.969L 8.064 5.11ZM 12.3315 8.827C 12.7235 8.827 13.0688 8.78033 13.3675 8.687C 13.6708 8.589 13.9228 8.45367 14.1235 8.281C 14.3288 8.10367 14.4828 7.89367 14.5855 7.651C 14.6882 7.40833 14.7395 7.14 14.7395 6.846C 14.7395 6.24867 14.5435 5.79833 14.1515 5.495C 13.7595 5.19167 13.1715 5.04 12.3875 5.04L 10.9035 5.04L 10.9035 8.827L 12.3315 8.827ZM 16.9655 14L 15.7615 14C 15.5142 14 15.3322 13.9043 15.2155 13.713L 12.6115 10.129C 12.5322 10.017 12.4458 9.93767 12.3525 9.891C 12.2638 9.83967 12.1238 9.814 11.9325 9.814L 10.9035 9.814L 10.9035 14L 9.55248 14L 9.55248 3.969L 12.3875 3.969C 13.0222 3.969 13.5705 4.03433 14.0325 4.165C 14.4945 4.291 14.8748 4.47533 15.1735 4.718C 15.4768 4.96067 15.7008 5.25467 15.8455 5.6C 15.9902 5.94067 16.0625 6.32333 16.0625 6.748C 16.0625 7.10267 16.0065 7.434 15.8945 7.742C 15.7825 8.05 15.6192 8.32767 15.4045 8.575C 15.1945 8.81767 14.9355 9.02533 14.6275 9.198C 14.3242 9.37067 13.9788 9.50133 13.5915 9.59C 13.7642 9.688 13.9135 9.83033 14.0395 10.017L 16.9655 14ZM 22.1461 12.922C 22.5615 12.922 22.9325 12.852 23.2591 12.712C 23.5858 12.572 23.8611 12.376 24.0851 12.124C 24.3138 11.872 24.4865 11.571 24.6031 11.221C 24.7245 10.871 24.7851 10.486 24.7851 10.066L 24.7851 3.969L 26.1361 3.969L 26.1361 10.066C 26.1361 10.6447 26.0428 11.1813 25.8561 11.676C 25.6741 12.1707 25.4105 12.6 25.0651 12.964C 24.7245 13.3233 24.3068 13.6057 23.8121 13.811C 23.3175 14.0163 22.7621 14.119 22.1461 14.119C 21.5301 14.119 20.9748 14.0163 20.4801 13.811C 19.9855 13.6057 19.5655 13.3233 19.2201 12.964C 18.8748 12.6 18.6088 12.1707 18.4221 11.676C 18.2401 11.1813 18.1491 10.6447 18.1491 10.066L 18.1491 3.969L 19.5001 3.969L 19.5001 10.059C 19.5001 10.479 19.5585 10.864 19.6751 11.214C 19.7965 11.564 19.9691 11.865 20.1931 12.117C 20.4218 12.369 20.6995 12.5673 21.0261 12.712C 21.3575 12.852 21.7308 12.922 22.1461 12.922ZM 33.7011 5.537C 33.6591 5.607 33.6124 5.66067 33.5611 5.698C 33.5144 5.73067 33.4561 5.747 33.3861 5.747C 33.3067 5.747 33.2134 5.70733 33.1061 5.628C 32.9987 5.54867 32.8634 5.46233 32.7001 5.369C 32.5414 5.271 32.3477 5.18233 32.1191 5.103C 31.8951 5.02367 31.6221 4.984 31.3001 4.984C 30.9967 4.984 30.7284 5.026 30.4951 5.11C 30.2664 5.18933 30.0727 5.299 29.9141 5.439C 29.7601 5.579 29.6434 5.74467 29.5641 5.936C 29.4847 6.12267 29.4451 6.32567 29.4451 6.545C 29.4451 6.825 29.5127 7.05833 29.6481 7.245C 29.7881 7.427 29.9701 7.58333 30.1941 7.714C 30.4227 7.84467 30.6794 7.959 30.9641 8.057C 31.2534 8.15033 31.5474 8.24833 31.8461 8.351C 32.1494 8.45367 32.4434 8.57033 32.7281 8.701C 33.0174 8.827 33.2741 8.988 33.4981 9.184C 33.7267 9.38 33.9087 9.62033 34.0441 9.905C 34.1841 10.1897 34.2541 10.5397 34.2541 10.955C 34.2541 11.3937 34.1794 11.8067 34.0301 12.194C 33.8807 12.5767 33.6614 12.9103 33.3721 13.195C 33.0874 13.4797 32.7351 13.7037 32.3151 13.867C 31.8997 14.0303 31.4261 14.112 30.8941 14.112C 30.2407 14.112 29.6481 13.9953 29.1161 13.762C 28.5841 13.524 28.1291 13.2043 27.7511 12.803L 28.1431 12.159C 28.1804 12.1077 28.2247 12.0657 28.2761 12.033C 28.3321 11.9957 28.3927 11.977 28.4581 11.977C 28.5187 11.977 28.5864 12.0027 28.6611 12.054C 28.7404 12.1007 28.8291 12.1613 28.9271 12.236C 29.0251 12.3107 29.1371 12.3923 29.2631 12.481C 29.3891 12.5697 29.5314 12.6513 29.6901 12.726C 29.8534 12.8007 30.0377 12.8637 30.2431 12.915C 30.4484 12.9617 30.6794 12.985 30.9361 12.985C 31.2581 12.985 31.5451 12.9407 31.7971 12.852C 32.0491 12.7633 32.2614 12.6397 32.4341 12.481C 32.6114 12.3177 32.7467 12.124 32.8401 11.9C 32.9334 11.676 32.9801 11.4263 32.9801 11.151C 32.9801 10.8477 32.9101 10.6003 32.7701 10.409C 32.6347 10.213 32.4551 10.0497 32.2311 9.919C 32.0071 9.78833 31.7504 9.67867 31.4611 9.59C 31.1717 9.49667 30.8777 9.40333 30.5791 9.31C 30.2804 9.212 29.9864 9.1 29.6971 8.974C 29.4077 8.848 29.1511 8.68467 28.9271 8.484C 28.7031 8.28333 28.5211 8.03367 28.3811 7.735C 28.2457 7.43167 28.1781 7.05833 28.1781 6.615C 28.1781 6.26033 28.2457 5.91733 28.3811 5.586C 28.5211 5.25467 28.7217 4.96067 28.9831 4.704C 29.2491 4.44733 29.5734 4.242 29.9561 4.088C 30.3434 3.934 30.7867 3.857 31.2861 3.857C 31.8461 3.857 32.3547 3.94567 32.8121 4.123C 33.2741 4.30033 33.6801 4.557 34.0301 4.893L 33.7011 5.537ZM 42.9546 5.11L 39.7066 5.11L 39.7066 14L 38.3556 14L 38.3556 5.11L 35.1006 5.11L 35.1006 3.969L 42.9546 3.969L 42.9546 5.11ZM 47.4041 9.17C 47.7914 9.17 48.1321 9.11867 48.4261 9.016C 48.7248 8.91333 48.9744 8.771 49.1751 8.589C 49.3804 8.40233 49.5344 8.18067 49.6371 7.924C 49.7398 7.66733 49.7911 7.385 49.7911 7.077C 49.7911 6.43767 49.5928 5.93833 49.1961 5.579C 48.8041 5.21967 48.2068 5.04 47.4041 5.04L 45.7941 5.04L 45.7941 9.17L 47.4041 9.17ZM 47.4041 3.969C 48.0388 3.969 48.5894 4.04367 49.0561 4.193C 49.5274 4.33767 49.9171 4.54533 50.2251 4.816C 50.5331 5.08667 50.7618 5.41333 50.9111 5.796C 51.0651 6.17867 51.1421 6.60567 51.1421 7.077C 51.1421 7.54367 51.0604 7.97067 50.8971 8.358C 50.7338 8.74533 50.4934 9.079 50.1761 9.359C 49.8634 9.639 49.4738 9.85833 49.0071 10.017C 48.5451 10.171 48.0108 10.248 47.4041 10.248L 45.7941 10.248L 45.7941 14L 44.4431 14L 44.4431 3.969L 47.4041 3.969ZM 54.2093 14L 52.8513 14L 52.8513 3.969L 54.2093 3.969L 54.2093 14ZM 62.4661 12.859L 62.4661 14L 56.7751 14L 56.7751 3.969L 58.1261 3.969L 58.1261 12.859L 62.4661 12.859ZM 72.7697 8.988C 72.7697 9.73933 72.6507 10.43 72.4127 11.06C 72.1747 11.6853 71.8387 12.2243 71.4047 12.677C 70.9707 13.1297 70.448 13.482 69.8367 13.734C 69.23 13.9813 68.558 14.105 67.8207 14.105C 67.0834 14.105 66.4114 13.9813 65.8047 13.734C 65.198 13.482 64.6777 13.1297 64.2437 12.677C 63.8097 12.2243 63.4737 11.6853 63.2357 11.06C 62.9977 10.43 62.8787 9.73933 62.8787 8.988C 62.8787 8.23667 62.9977 7.54833 63.2357 6.923C 63.4737 6.293 63.8097 5.75167 64.2437 5.299C 64.6777 4.84167 65.198 4.487 65.8047 4.235C 66.4114 3.983 67.0834 3.857 67.8207 3.857C 68.558 3.857 69.23 3.983 69.8367 4.235C 70.448 4.487 70.9707 4.84167 71.4047 5.299C 71.8387 5.75167 72.1747 6.293 72.4127 6.923C 72.6507 7.54833 72.7697 8.23667 72.7697 8.988ZM 71.3767 8.988C 71.3767 8.372 71.2927 7.819 71.1247 7.329C 70.9567 6.839 70.7187 6.426 70.4107 6.09C 70.1027 5.74933 69.7294 5.488 69.2907 5.306C 68.852 5.124 68.362 5.033 67.8207 5.033C 67.284 5.033 66.7964 5.124 66.3577 5.306C 65.919 5.488 65.5434 5.74933 65.2307 6.09C 64.9227 6.426 64.6847 6.839 64.5167 7.329C 64.3487 7.819 64.2647 8.372 64.2647 8.988C 64.2647 9.604 64.3487 10.157 64.5167 10.647C 64.6847 11.1323 64.9227 11.5453 65.2307 11.886C 65.5434 12.222 65.919 12.481 66.3577 12.663C 66.7964 12.8403 67.284 12.929 67.8207 12.929C 68.362 12.929 68.852 12.8403 69.2907 12.663C 69.7294 12.481 70.1027 12.222 70.4107 11.886C 70.7187 11.5453 70.9567 11.1323 71.1247 10.647C 71.2927 10.157 71.3767 9.604 71.3767 8.988ZM 81.0445 5.11L 77.7965 5.11L 77.7965 14L 76.4455 14L 76.4455 5.11L 73.1905 5.11L 73.1905 3.969L 81.0445 3.969L 81.0445 5.11Z"/>
    </defs>
</svg>
