<svg width="20" height="17" viewBox="0 0 20 17" fill="none" xmlns="http://www.w3.org/2000/svg">
<path d="M20 2.00617C19.2648 2.34696 18.4735 2.57683 17.6433 2.6797C18.491 2.15053 19.1409 1.31233 19.4475 0.312419C18.6546 0.803062 17.7768 1.15908 16.8418 1.35128C16.0936 0.519852 15.0271 0 13.8469 0C11.5811 0 9.74403 1.91558 9.74403 4.27862C9.74403 4.61348 9.78016 4.93987 9.85039 5.25356C6.44013 5.07491 3.41636 3.37184 1.39253 0.783165C1.03932 1.41478 0.83714 2.14968 0.83714 2.93454C0.83714 4.41875 1.56142 5.72854 2.66244 6.49562C1.99013 6.47318 1.35721 6.28056 0.803849 5.9601C0.803443 5.97788 0.803443 5.99608 0.803443 6.01429C0.803443 8.08692 2.21789 9.81581 4.09516 10.2095C3.75089 10.3069 3.38834 10.3594 3.01403 10.3594C2.74933 10.3594 2.49234 10.3327 2.24184 10.2823C2.76435 11.982 4.27948 13.2194 6.07474 13.2537C4.67044 14.4014 2.90157 15.0855 0.978828 15.0855C0.647951 15.0855 0.321133 15.0651 0 15.0253C1.81637 16.2399 3.97296 16.9477 6.28991 16.9477C13.8376 16.9477 17.9644 10.4284 17.9644 4.77435C17.9644 4.58893 17.9607 4.40393 17.953 4.2202C18.7544 3.61822 19.4503 2.86427 20 2.00617Z" fill="white"/>
</svg>
