<svg width="21" height="21" viewBox="0 0 21 21" fill="none" xmlns="http://www.w3.org/2000/svg">
  <path d="M17.1429 6.59821C16.7679 7.17411 16.2857 7.66964 15.7366 8.05803C15.75 8.17857 15.75 8.29911 15.75 8.41964C15.75 12.1429 12.9107 16.4286 7.74107 16.4286C6.14732 16.4286 4.67411 15.9598 3.42857 15.1696C3.64286 15.1964 3.87054 15.2098 4.09821 15.2098C5.42411 15.2098 6.62946 14.7545 7.59375 14.0045C6.36161 13.9777 5.33036 13.1607 4.96875 12.0491C5.14286 12.0759 5.31696 12.1027 5.49107 12.1027C5.74554 12.1027 5.93304 12.0625 6.17411 11.9955C4.88839 11.7411 3.85714 10.6027 3.85714 9.23661C3.85714 9.22321 3.85714 9.20982 3.85714 9.20982C4.28571 9.41071 4.72768 9.54464 5.19643 9.55804C4.43304 9.04911 3.97768 8.19196 3.97768 7.21428C3.97768 6.70536 4.125 6.20982 4.36607 5.79464C5.75893 7.50893 7.83482 8.62053 10.1786 8.74107C10.125 8.54018 10.1116 8.3125 10.1116 8.09821C10.1116 6.54464 11.3705 5.28571 12.9241 5.28571C13.7277 5.28571 14.4643 5.62053 14.9732 6.16964C15.6161 6.04911 16.2188 5.80803 16.7679 5.48661C16.5536 6.14286 16.1116 6.70536 15.5223 7.05357C16.0982 6.97321 16.6339 6.82589 17.1429 6.59821ZM20.5714 4C20.5714 1.87053 18.8438 0.142856 16.7143 0.142856H3.85714C1.72768 0.142856 0 1.87053 0 4V16.8571C0 18.9866 1.72768 20.7143 3.85714 20.7143H16.7143C18.8438 20.7143 20.5714 18.9866 20.5714 16.8571V4Z" fill="white"/>
</svg>
