<svg width="15" height="9" viewBox="0 0 15 9" fill="none" xmlns="http://www.w3.org/2000/svg">
<path d="M13.7132 0C13.3976 0 13.1417 0.255837 13.1417 0.571439V2.65885C10.1998 -0.189375 5.50596 -0.113371 2.65774 2.82854C1.31544 4.215 0.56661 6.07021 0.570326 7.99998C0.570326 8.31559 0.826163 8.57142 1.14177 8.57142C1.45737 8.57142 1.71317 8.31559 1.71317 7.99998C1.71387 4.52849 4.52862 1.71482 8.00014 1.71552C9.76321 1.71586 11.4451 2.45665 12.6355 3.75713L10.1041 4.60111C9.80426 4.70086 9.64204 5.02473 9.74178 5.32453C9.84153 5.62433 10.1654 5.78655 10.4652 5.6868L13.8938 4.54396C14.1278 4.46601 14.2854 4.24664 14.2846 3.99997V0.571406C14.2846 0.255837 14.0288 0 13.7132 0Z" fill="#0D7DFD"/>
</svg>
