<svg width="128" height="40" viewBox="0 0 128 40" fill="none" xmlns="http://www.w3.org/2000/svg">
<rect x="0.5" y="0.5" width="127" height="39" rx="3.5" fill="#1E1F22"/>
<path d="M46.1163 10.9856C46.1467 11.6412 45.907 12.2805 45.453 12.7545C44.9457 13.2814 44.2382 13.5676 43.5073 13.5416C42.7717 13.5488 42.0643 13.2592 41.545 12.7382C41.0256 12.2172 40.7383 11.5089 40.7478 10.7733C40.7383 10.0378 41.0256 9.3294 41.545 8.80842C42.0643 8.28744 42.7717 7.9978 43.5073 8.00501C43.8812 8.00376 44.2514 8.07901 44.5951 8.22612C44.9152 8.3552 45.2001 8.55827 45.4265 8.81869L44.9577 9.28744C44.5998 8.86174 44.0626 8.62914 43.5073 8.65949C42.9506 8.65684 42.4168 8.88044 42.0283 9.27901C41.6397 9.67758 41.4297 10.217 41.4465 10.7733C41.4347 11.6164 41.9312 12.3837 42.705 12.7184C43.4789 13.0531 44.3781 12.8894 44.9843 12.3034C45.2564 12.0085 45.4134 11.6255 45.4265 11.2244H43.5073V10.5876H46.081C46.1046 10.719 46.1164 10.8521 46.1163 10.9856Z" fill="white" stroke="white" stroke-width="0.2"/>
<path d="M50.1668 8.7746H47.7789V10.455H49.9546V11.0918H47.7789V12.7722H50.1668V13.4267H47.0713V8.12012H50.1668V8.7746Z" fill="white" stroke="white" stroke-width="0.2"/>
<path d="M53.0678 13.4267H52.3867V8.7746H50.9009V8.12012H54.589V8.7746H53.0678V13.4267Z" fill="white" stroke="white" stroke-width="0.2"/>
<path d="M57.189 13.4267V8.12012H57.87V13.4267H57.189Z" fill="white" stroke="white" stroke-width="0.2"/>
<path d="M60.8954 13.4267H60.2143V8.7746H58.7285V8.12012H62.3724V8.7746H60.8954V13.4267Z" fill="white" stroke="white" stroke-width="0.2"/>
<path fill-rule="evenodd" clip-rule="evenodd" d="M64.61 10.7736C64.5939 11.5062 64.8746 12.2144 65.3883 12.737C66.4647 13.8074 68.2035 13.8074 69.2798 12.737C69.7936 12.2144 70.0743 11.5062 70.0581 10.7736C70.0743 10.0409 69.7936 9.33273 69.2798 8.81011C68.7651 8.29161 68.0647 8 67.3341 8C66.6035 8 65.9031 8.29161 65.3883 8.81011C64.8746 9.33273 64.5939 10.0409 64.61 10.7736ZM68.7756 12.2951C67.9784 13.0889 66.6895 13.0889 65.8924 12.2951C65.4956 11.8901 65.2816 11.3406 65.2998 10.7739C65.2721 10.2123 65.4731 9.66349 65.857 9.25266C66.6541 8.45882 67.9431 8.45882 68.7402 9.25266C69.1499 9.65173 69.3771 10.202 69.3682 10.7739C69.3864 11.3406 69.1723 11.8901 68.7756 12.2951Z" fill="white"/>
<path d="M65.3882 12.7374L65.3169 12.8075L65.3177 12.8083L65.3882 12.7374ZM64.6099 10.774L64.71 10.7762L64.7099 10.7717L64.6099 10.774ZM69.2797 12.7374L69.3503 12.8083L69.3511 12.8075L69.2797 12.7374ZM70.058 10.774L69.958 10.7717L69.9581 10.7762L70.058 10.774ZM69.2797 8.8105L69.3511 8.7404L69.3507 8.74005L69.2797 8.8105ZM65.3882 8.8105L65.3173 8.74005L65.3169 8.7404L65.3882 8.8105ZM65.8923 12.2955L65.8208 12.3655L65.8217 12.3664L65.8923 12.2955ZM68.7755 12.2955L68.8461 12.3664L68.8469 12.3655L68.7755 12.2955ZM65.2997 10.7743L65.4 10.7775L65.3996 10.7694L65.2997 10.7743ZM65.8569 9.25305L65.7863 9.18214L65.7838 9.18478L65.8569 9.25305ZM68.7401 9.25305L68.6696 9.32391L68.6704 9.32468L68.7401 9.25305ZM69.3681 10.7743L69.268 10.7727L69.2681 10.7775L69.3681 10.7743ZM65.4595 12.6673C64.9647 12.1639 64.6943 11.4819 64.7099 10.7762L64.51 10.7717C64.4932 11.5314 64.7842 12.2656 65.3169 12.8075L65.4595 12.6673ZM69.2092 12.6665C68.1719 13.6981 66.4961 13.6981 65.4588 12.6665L65.3177 12.8083C66.4331 13.9175 68.2349 13.9175 69.3503 12.8083L69.2092 12.6665ZM69.9581 10.7762C69.9737 11.4819 69.7033 12.1639 69.2084 12.6673L69.3511 12.8075C69.8838 12.2656 70.1748 11.5314 70.158 10.7717L69.9581 10.7762ZM69.2084 8.88061C69.7033 9.38398 69.9737 10.066 69.9581 10.7717L70.158 10.7762C70.1748 10.0165 69.8838 9.28227 69.3511 8.7404L69.2084 8.88061ZM67.334 8.10039C68.038 8.10039 68.7128 8.38136 69.2088 8.88095L69.3507 8.74005C68.8172 8.20264 68.0913 7.90039 67.334 7.90039V8.10039ZM65.4592 8.88095C65.9552 8.38136 66.63 8.10039 67.334 8.10039V7.90039C66.5767 7.90039 65.8508 8.20264 65.3173 8.74005L65.4592 8.88095ZM64.7099 10.7717C64.6943 10.066 64.9647 9.38398 65.4595 8.88061L65.3169 8.7404C64.7842 9.28227 64.4932 10.0165 64.51 10.7762L64.7099 10.7717ZM65.8217 12.3664C66.6579 13.1991 68.0099 13.1991 68.8461 12.3664L68.7049 12.2246C67.9468 12.9796 66.721 12.9796 65.9628 12.2246L65.8217 12.3664ZM65.1997 10.7711C65.1806 11.365 65.405 11.941 65.8208 12.3655L65.9637 12.2255C65.586 11.84 65.3823 11.3169 65.3996 10.7775L65.1997 10.7711ZM65.7838 9.18478C65.3815 9.61538 65.1708 10.1906 65.1998 10.7792L65.3996 10.7694C65.3732 10.2348 65.5646 9.71238 65.9299 9.32132L65.7838 9.18478ZM68.8107 9.18219C67.9745 8.3495 66.6225 8.3495 65.7863 9.18219L65.9274 9.3239C66.6856 8.56892 67.9114 8.56892 68.6696 9.3239L68.8107 9.18219ZM69.4681 10.7758C69.4774 10.1764 69.2393 9.59969 68.8099 9.18141L68.6704 9.32468C69.0603 9.70455 69.2766 10.2284 69.2681 10.7727L69.4681 10.7758ZM68.8469 12.3655C69.2628 11.941 69.4871 11.365 69.468 10.7711L69.2681 10.7775C69.2855 11.3169 69.0817 11.84 68.7041 12.2255L68.8469 12.3655Z" fill="white"/>
<path d="M71.022 13.4267V8.12012H71.8533L74.4359 12.2504V11.2245V8.12012H75.1169V13.4267H74.4093L71.703 9.10184V10.1278V13.4267H71.022Z" fill="white" stroke="white" stroke-width="0.2"/>
<path fill-rule="evenodd" clip-rule="evenodd" d="M46.399 22.3241V23.916H50.2198C50.1599 24.6659 49.8482 25.3734 49.3354 25.9237C48.5624 26.711 47.4927 27.1351 46.3902 27.0912C44.0456 27.0912 42.1449 25.1905 42.1449 22.8459C42.1449 20.5013 44.0456 18.6006 46.3902 18.6006C47.4673 18.583 48.5073 18.9933 49.2823 19.7415L50.4055 18.6183C49.3486 17.548 47.9032 16.9514 46.399 16.9644C44.2578 16.8811 42.2426 17.9759 41.1472 19.8176C40.0518 21.6594 40.0518 23.9528 41.1472 25.7945C42.2426 27.6363 44.2578 28.7311 46.399 28.6478C47.9307 28.717 49.4174 28.1203 50.4763 27.0116C51.4029 25.9935 51.8976 24.6552 51.856 23.2793C51.8589 22.944 51.8292 22.6093 51.7676 22.2798L46.399 22.3241ZM56.2078 21.1653C54.133 21.1701 52.4545 22.8552 52.4578 24.93C52.4611 27.0048 54.1448 28.6845 56.2196 28.6829C58.2944 28.6813 59.9755 26.9989 59.9755 24.9241C59.99 23.9197 59.5963 22.9524 58.8843 22.2438C58.1724 21.5352 57.2033 21.146 56.1989 21.1653H56.2078ZM60.7006 24.9358C60.6941 22.8622 62.3681 21.175 64.4417 21.1653C65.446 21.146 66.4151 21.5352 67.1271 22.2438C67.839 22.9524 68.2328 23.9197 68.2182 24.9241C68.2182 26.9977 66.5389 28.6797 64.4653 28.6829C62.3916 28.6861 60.7071 27.0095 60.7006 24.9358ZM62.3889 25.914C62.7928 26.7594 63.6724 27.272 64.607 27.2066C65.1937 27.193 65.75 26.943 66.1496 26.5134C66.5493 26.0838 66.7585 25.5109 66.7297 24.9248C66.7274 23.9879 66.1526 23.1476 65.2803 22.8058C64.4079 22.464 63.4153 22.6902 62.7771 23.3762C62.139 24.0622 61.985 25.0686 62.3889 25.914ZM54.1271 25.9201C54.5338 26.765 55.416 27.2751 56.3512 27.206H56.3423C56.9289 27.1924 57.4852 26.9424 57.8849 26.5128C58.2846 26.0831 58.4937 25.5103 58.465 24.9242C58.4624 23.9865 57.8865 23.1458 57.013 22.8048C56.1396 22.4638 55.1464 22.6918 54.5092 23.3797C53.8719 24.0676 53.7204 25.0752 54.1271 25.9201ZM83.2536 21.1654C84.7199 21.2194 86.0007 22.173 86.4729 23.5623L86.6587 23.9603L81.6262 26.0387C81.9417 26.757 82.6642 27.2095 83.4482 27.1796C84.2051 27.1815 84.9073 26.7851 85.2966 26.136L86.5791 27.0204C85.8809 28.0653 84.7048 28.6899 83.4482 28.6831C82.4493 28.6978 81.4873 28.3056 80.7834 27.5967C80.0795 26.8877 79.6942 25.9231 79.7159 24.9243C79.6548 23.9483 80.0003 22.9906 80.6705 22.2785C81.3407 21.5665 82.2757 21.1635 83.2536 21.1654ZM81.3432 24.8182C81.307 24.2656 81.4947 23.7216 81.8641 23.309C82.2334 22.8964 82.7534 22.6498 83.3066 22.6248C83.8898 22.5864 84.4396 22.8996 84.704 23.4208L81.3432 24.8182ZM78.9108 28.462H77.2569V17.4066H78.9108V28.462ZM74.5508 22.0058H74.4889C73.9847 21.4422 73.264 21.1204 72.5078 21.1214C70.5002 21.2187 68.9226 22.8748 68.9226 24.8847C68.9226 26.8945 70.5002 28.5506 72.5078 28.6479C73.2665 28.6607 73.9919 28.3368 74.4889 27.7635H74.542V28.303C74.542 29.7446 73.7725 30.5141 72.5343 30.5141C71.6908 30.4943 70.943 29.9666 70.6416 29.1786L69.2 29.78C69.7551 31.1303 71.0743 32.0086 72.5343 31.9999C74.4712 31.9999 76.072 30.859 76.072 28.0819V21.3867H74.5508V22.0058ZM72.6552 27.2058L72.6579 27.206H72.6491L72.6552 27.2058ZM74.1455 26.4965C73.766 26.926 73.2277 27.1821 72.6552 27.2058C71.474 27.1003 70.5684 26.1105 70.5684 24.9242C70.5684 23.737 71.4754 22.7466 72.6579 22.6424C73.2294 22.6717 73.7648 22.9305 74.1428 23.3601C74.5208 23.7897 74.7093 24.3537 74.6656 24.9242C74.7144 25.4974 74.5265 26.0655 74.1455 26.4965ZM94.2205 17.4068H90.2582V28.4622H91.9121V24.27H94.2205C95.5053 24.3623 96.734 23.7292 97.4046 22.6294C98.0751 21.5296 98.0751 20.1473 97.4046 19.0475C96.734 17.9477 95.5053 17.3145 94.2205 17.4068ZM91.9122 22.7134H94.2206L94.256 22.7399C95.3037 22.7399 96.1531 21.8906 96.1531 20.8428C96.1531 19.7951 95.3037 18.9457 94.256 18.9457H91.9122V22.7134ZM104.418 21.1217C103.188 21.0482 102.031 21.7117 101.473 22.811L102.941 23.4213C103.237 22.8762 103.827 22.5571 104.445 22.6076C104.869 22.5581 105.295 22.681 105.628 22.9487C105.96 23.2165 106.171 23.6066 106.214 24.0315V24.1465C105.682 23.8653 105.09 23.7194 104.489 23.722C102.906 23.722 101.305 24.6064 101.305 26.2072C101.337 26.8968 101.646 27.5443 102.162 28.0025C102.679 28.4606 103.358 28.6903 104.047 28.6394C104.895 28.7003 105.709 28.2934 106.169 27.5781H106.222V28.4625H107.814V24.2084C107.814 22.2715 106.346 21.1483 104.462 21.1483L104.418 21.1217ZM102.924 26.2422C102.924 26.9056 103.675 27.1797 104.215 27.1797L104.259 27.2063C105.255 27.182 106.082 26.4275 106.196 25.4374C105.737 25.1813 105.218 25.053 104.692 25.066C103.861 25.066 102.924 25.3578 102.924 26.2422ZM113.616 21.3865L111.724 26.1802H111.671L109.707 21.3865H107.938L110.883 28.0905L109.203 31.814H110.928L115.456 21.3865H113.616ZM100.403 28.462H98.7489V17.4066H100.403V28.462Z" fill="white"/>
<path d="M13.4098 8.59804C13.1279 8.94655 12.9888 9.38911 13.0206 9.83624V29.3999C12.9937 29.8494 13.1392 30.2922 13.4275 30.6381L13.4894 30.7001L24.4298 19.7508V19.4943L13.4717 8.53613L13.4098 8.59804Z" fill="url(#paint0_linear)"/>
<path d="M28.0559 23.4038L24.4297 19.751V19.4946L28.0559 15.833L28.1355 15.8772L32.478 18.3448C33.7163 19.0435 33.7163 20.1933 32.478 20.9008L28.1532 23.3595L28.0559 23.4038Z" fill="url(#paint1_linear)"/>
<path d="M28.162 23.3593L24.4297 19.6182L13.4097 30.6382C13.9304 31.0959 14.7031 31.1182 15.2493 30.6913L28.1709 23.3505" fill="url(#paint2_linear)"/>
<path d="M28.1626 15.8859L15.2411 8.54507C14.6949 8.11813 13.9221 8.14042 13.4014 8.59814L24.4303 19.6182L28.1626 15.8859Z" fill="url(#paint3_linear)"/>
<path opacity="0.2" d="M28.0559 23.2705L15.2405 30.567C14.716 30.9591 13.996 30.9591 13.4716 30.567L13.4097 30.6289L13.4716 30.6909C13.995 31.0859 14.717 31.0859 15.2405 30.6909L28.162 23.3501L28.0559 23.2705Z" fill="black"/>
<path opacity="0.12" d="M13.41 30.5136C13.1217 30.1677 12.9762 29.7249 13.0032 29.2754V29.4081C12.9762 29.8576 13.1217 30.3004 13.41 30.6463L13.4719 30.5844L13.41 30.5136Z" fill="black"/>
<path opacity="0.12" d="M32.4784 20.7679L28.0562 23.2709L28.1358 23.3505L32.4784 20.8918C32.9799 20.6562 33.3172 20.1704 33.3628 19.6182C33.262 20.1177 32.9354 20.5424 32.4784 20.7679Z" fill="black"/>
<path opacity="0.25" d="M15.2409 8.66798L32.4785 18.4675C32.9355 18.6931 33.2621 19.1177 33.3629 19.6172C33.3173 19.065 32.98 18.5793 32.4785 18.3437L15.2409 8.54416C14.0115 7.83661 13.021 8.42034 13.021 9.83543V9.9681C13.021 8.55301 14.0115 7.96928 15.2409 8.66798Z" fill="white"/>
<rect x="0.5" y="0.5" width="127" height="39" rx="3.5" stroke="#2A2B2F"/>
<defs>
<linearGradient id="paint0_linear" x1="19.6357" y1="-4.77664" x2="2.09295" y2="-0.124473" gradientUnits="userSpaceOnUse">
<stop stop-color="#00A0FF"/>
<stop offset="0.01" stop-color="#00A1FF"/>
<stop offset="0.26" stop-color="#00BEFF"/>
<stop offset="0.51" stop-color="#00D2FF"/>
<stop offset="0.76" stop-color="#00DFFF"/>
<stop offset="1" stop-color="#00E3FF"/>
</linearGradient>
<linearGradient id="paint1_linear" x1="34.0966" y1="10.5969" x2="12.7021" y2="10.5969" gradientUnits="userSpaceOnUse">
<stop stop-color="#FFE000"/>
<stop offset="0.41" stop-color="#FFBD00"/>
<stop offset="0.78" stop-color="#FFA500"/>
<stop offset="1" stop-color="#FF9C00"/>
</linearGradient>
<linearGradient id="paint2_linear" x1="13.0859" y1="13.8937" x2="-1.00885" y2="37.6023" gradientUnits="userSpaceOnUse">
<stop stop-color="#FF3A44"/>
<stop offset="1" stop-color="#C31162"/>
</linearGradient>
<linearGradient id="paint3_linear" x1="4.80475" y1="5.55216" x2="11.096" y2="16.1392" gradientUnits="userSpaceOnUse">
<stop stop-color="#32A071"/>
<stop offset="0.07" stop-color="#2DA771"/>
<stop offset="0.48" stop-color="#15CF74"/>
<stop offset="0.8" stop-color="#06E775"/>
<stop offset="1" stop-color="#00F076"/>
</linearGradient>
</defs>
</svg>
