<svg width="114" height="30" viewBox="0 0 114 30" fill="none" xmlns="http://www.w3.org/2000/svg">
<path d="M9.71398 23.0276C11.2141 23.0276 11.9641 22.5126 11.9641 21.4828V18.3379H7.95778V15.2483H17.2327V21.9793C17.2327 23.2667 16.5741 24.2782 15.257 25.0138C14.0496 25.7494 12.5495 26.1172 10.7567 26.1172H6.47599C3.65875 26.1172 1.68302 25.3264 0.548812 23.7448C0.182937 23.2299 0 22.6414 0 21.9793V7.13793C0 5.88736 0.621987 4.89425 1.86596 4.15862C3.14652 3.38621 4.6832 3 6.47599 3H10.7567C12.5495 3 14.0679 3.36781 15.3119 4.10345C16.5924 4.83908 17.2327 5.85058 17.2327 7.13793V10.2276H11.9641V7.63448C11.9641 6.6046 11.2141 6.08966 9.71398 6.08966H7.51873C6.01864 6.08966 5.2686 6.6046 5.2686 7.63448V21.4828C5.2686 22.5126 6.01864 23.0276 7.51873 23.0276H9.71398Z" fill="white"/>
<path d="M31.1024 23.0276C32.5659 23.0276 33.2977 22.5126 33.2977 21.4828V7.63448C33.2977 6.6046 32.5659 6.08966 31.1024 6.08966H28.6877C27.1876 6.08966 26.4375 6.6046 26.4375 7.63448V21.4828C26.4375 22.5126 27.1876 23.0276 28.6877 23.0276H31.1024ZM21.1689 7.13793C21.1689 5.88736 21.7909 4.89425 23.0349 4.15862C24.3155 3.38621 25.8521 3 27.6449 3H32.1452C34.9624 3 36.9381 3.7908 38.0724 5.37241C38.4382 5.88736 38.6212 6.47586 38.6212 7.13793V21.9793C38.6212 23.2299 37.9809 24.2414 36.7003 25.0138C35.4563 25.7494 33.938 26.1172 32.1452 26.1172H27.6449C24.8277 26.1172 22.852 25.3264 21.7177 23.7448C21.3519 23.2299 21.1689 22.6414 21.1689 21.9793V7.13793Z" fill="white"/>
<path d="M52.3452 23.0276C53.8453 23.0276 54.5954 22.5126 54.5954 21.4828V7.63448C54.5954 6.6046 53.8453 6.08966 52.3452 6.08966H48.1194V23.0276H52.3452ZM53.4428 3C55.199 3 56.6991 3.36781 57.9431 4.10345C59.2237 4.83908 59.864 5.85058 59.864 7.13793V21.9793C59.864 23.2667 59.2054 24.2782 57.8882 25.0138C56.6808 25.7494 55.199 26.1172 53.4428 26.1172H42.8508V3H53.4428Z" fill="white"/>
<path d="M78.8381 26.1172H63.0872V3H78.8381V6.08966H68.3558V12.269H76.5879V15.3586H68.3558V23.0276H78.8381V26.1172Z" fill="white"/>
<path d="M88.5591 3L105.517 26.1172H98.2488L81.2905 3H88.5591Z" fill="white"/>
<path d="M108.189 4.0308L110.043 1.61719H107H100.741C98.5814 1.61719 96.5525 2.64644 95.2706 4.38624L79.284 25.2036L77.4304 27.6172H80.4736H86.7319C88.8918 27.6172 90.9207 26.5879 92.2026 24.8481L108.189 4.0308Z" fill="url(#paint0_linear)" stroke="#101012" stroke-width="3"/>
<defs>
<linearGradient id="paint0_linear" x1="102.035" y1="-5.26743" x2="102.035" y2="27.9633" gradientUnits="userSpaceOnUse">
<stop stop-color="#24BEFC"/>
<stop offset="1" stop-color="#1265E7"/>
</linearGradient>
</defs>
</svg>
