<svg width="15" height="9" viewBox="0 0 15 9" fill="none" xmlns="http://www.w3.org/2000/svg">
  <path d="M13.8577 0.428711C13.5421 0.428711 13.2863 0.684548 13.2863 1.00015C13.2856 4.47164 10.4708 7.28531 6.99933 7.28461C5.23626 7.28428 3.55443 6.54348 2.36401 5.243L4.89542 4.39902C5.19521 4.29928 5.35744 3.97541 5.25769 3.67561C5.15795 3.37581 4.83408 3.21359 4.53428 3.31333L1.10572 4.45617C0.871677 4.53412 0.714076 4.7535 0.714847 5.00016V8.42873C0.714847 8.74433 0.970683 9.00017 1.28628 9.00017C1.60189 9.00017 1.85772 8.74433 1.85772 8.42873V6.34129C4.79966 9.18951 9.49351 9.11354 12.3417 6.1716C13.684 4.78514 14.4328 2.92993 14.4291 1.00015C14.4292 0.684548 14.1733 0.428711 13.8577 0.428711Z" fill="white"/>
</svg>
